<?xml version="1.0" encoding="utf-8"?>
<!-- Generator: Adobe Illustrator 24.2.3, SVG Export Plug-In . SVG Version: 6.00 Build 0)  -->
<svg version="1.1" id="Слой_1" xmlns="http://www.w3.org/2000/svg" xmlns:xlink="http://www.w3.org/1999/xlink" x="0px" y="0px"
	 viewBox="0 0 427.9 311" style="enable-background:new 0 0 427.9 311;" xml:space="preserve">
<style type="text/css">
	.st0{clip-path:url(#SVGID_2_);fill:#FFFFFF;}
	.st1{clip-path:url(#SVGID_4_);}
	.st2{clip-path:url(#SVGID_6_);}
	.st3{opacity:0.31;enable-background:new    ;}
	
		.st4{opacity:0.31;fill:none;stroke:#000000;stroke-width:0.6623;stroke-linejoin:round;stroke-miterlimit:10;enable-background:new    ;}
	.st5{clip-path:url(#SVGID_8_);}
	.st6{clip-path:url(#SVGID_10_);}
	.st7{opacity:0.31;fill:#E52521;enable-background:new    ;}
	
		.st8{opacity:0.31;fill:none;stroke:#E52521;stroke-width:0.6623;stroke-linejoin:round;stroke-miterlimit:10;enable-background:new    ;}
	.st9{clip-path:url(#SVGID_12_);fill:none;}
	.st10{clip-path:url(#SVGID_14_);fill:none;stroke:#000000;stroke-width:0.5299;stroke-linejoin:round;stroke-miterlimit:10;}
	.st11{clip-path:url(#SVGID_16_);}
	.st12{clip-path:url(#SVGID_18_);fill:none;}
	.st13{clip-path:url(#SVGID_20_);fill:none;stroke:#000000;stroke-width:0.5299;stroke-linejoin:round;stroke-miterlimit:10;}
	.st14{clip-path:url(#SVGID_22_);}
	.st15{clip-path:url(#SVGID_24_);}
	.st16{clip-path:url(#SVGID_26_);fill:none;}
	.st17{clip-path:url(#SVGID_28_);fill:none;stroke:#000000;stroke-width:0.5299;stroke-linejoin:round;stroke-miterlimit:10;}
	.st18{clip-path:url(#SVGID_30_);}
	.st19{clip-path:url(#SVGID_32_);}
	.st20{clip-path:url(#SVGID_34_);fill:none;}
	.st21{clip-path:url(#SVGID_36_);fill:none;stroke:#000000;stroke-width:0.5299;stroke-linejoin:round;stroke-miterlimit:10;}
	.st22{clip-path:url(#SVGID_38_);}
	.st23{clip-path:url(#SVGID_40_);}
	.st24{clip-path:url(#SVGID_42_);fill:none;}
	.st25{clip-path:url(#SVGID_44_);fill:none;stroke:#000000;stroke-width:0.5299;stroke-linejoin:round;stroke-miterlimit:10;}
	.st26{clip-path:url(#SVGID_46_);}
	.st27{clip-path:url(#SVGID_48_);}
	.st28{clip-path:url(#SVGID_50_);fill:none;}
	.st29{clip-path:url(#SVGID_52_);fill:none;stroke:#000000;stroke-width:0.5299;stroke-linejoin:round;stroke-miterlimit:10;}
	.st30{clip-path:url(#SVGID_54_);}
	.st31{clip-path:url(#SVGID_56_);}
	.st32{clip-path:url(#SVGID_58_);}
	.st33{clip-path:url(#SVGID_60_);}
	.st34{clip-path:url(#SVGID_62_);}
	.st35{clip-path:url(#SVGID_64_);fill:none;}
	.st36{clip-path:url(#SVGID_66_);fill:none;stroke:#000000;stroke-width:0.5299;stroke-linejoin:round;stroke-miterlimit:10;}
	.st37{clip-path:url(#SVGID_68_);}
	.st38{clip-path:url(#SVGID_70_);}
	.st39{clip-path:url(#SVGID_72_);}
	.st40{clip-path:url(#SVGID_74_);}
	.st41{clip-path:url(#SVGID_76_);}
	.st42{clip-path:url(#SVGID_78_);fill:none;}
	.st43{clip-path:url(#SVGID_80_);fill:none;stroke:#000000;stroke-width:0.5299;stroke-linejoin:round;stroke-miterlimit:10;}
	.st44{clip-path:url(#SVGID_82_);}
	.st45{clip-path:url(#SVGID_84_);}
	.st46{clip-path:url(#SVGID_86_);}
	.st47{clip-path:url(#SVGID_88_);}
	.st48{clip-path:url(#SVGID_90_);}
	.st49{clip-path:url(#SVGID_92_);fill:none;}
	.st50{clip-path:url(#SVGID_94_);fill:none;stroke:#000000;stroke-width:0.5299;stroke-linejoin:round;stroke-miterlimit:10;}
	.st51{clip-path:url(#SVGID_96_);}
	.st52{clip-path:url(#SVGID_98_);}
	.st53{clip-path:url(#SVGID_100_);}
	.st54{clip-path:url(#SVGID_102_);}
	.st55{clip-path:url(#SVGID_104_);}
	.st56{clip-path:url(#SVGID_106_);fill:none;}
	.st57{clip-path:url(#SVGID_108_);fill:none;stroke:#000000;stroke-width:0.5299;stroke-linejoin:round;stroke-miterlimit:10;}
	.st58{clip-path:url(#SVGID_110_);}
	.st59{clip-path:url(#SVGID_112_);}
	.st60{clip-path:url(#SVGID_114_);}
	.st61{clip-path:url(#SVGID_116_);}
	.st62{clip-path:url(#SVGID_118_);}
	.st63{clip-path:url(#SVGID_120_);fill:none;}
	.st64{clip-path:url(#SVGID_122_);fill:none;stroke:#000000;stroke-width:0.5299;stroke-linejoin:round;stroke-miterlimit:10;}
	.st65{clip-path:url(#SVGID_124_);}
	.st66{clip-path:url(#SVGID_126_);}
	.st67{clip-path:url(#SVGID_128_);}
	.st68{clip-path:url(#SVGID_130_);}
	.st69{clip-path:url(#SVGID_132_);}
	.st70{clip-path:url(#SVGID_134_);fill:none;}
	.st71{clip-path:url(#SVGID_136_);fill:none;stroke:#000000;stroke-width:0.5299;stroke-linejoin:round;stroke-miterlimit:10;}
	.st72{clip-path:url(#SVGID_138_);}
	.st73{clip-path:url(#SVGID_140_);}
	.st74{clip-path:url(#SVGID_142_);}
	.st75{clip-path:url(#SVGID_144_);}
	.st76{clip-path:url(#SVGID_146_);}
	.st77{clip-path:url(#SVGID_148_);fill:none;}
	.st78{clip-path:url(#SVGID_150_);fill:none;stroke:#000000;stroke-width:0.5299;stroke-linejoin:round;stroke-miterlimit:10;}
	.st79{clip-path:url(#SVGID_152_);}
	.st80{clip-path:url(#SVGID_154_);}
	.st81{clip-path:url(#SVGID_156_);}
	.st82{clip-path:url(#SVGID_158_);}
	.st83{clip-path:url(#SVGID_160_);}
	.st84{clip-path:url(#SVGID_162_);}
	
		.st85{clip-path:url(#SVGID_164_);fill:none;stroke:#000000;stroke-width:0.9935;stroke-linecap:square;stroke-linejoin:round;stroke-miterlimit:10;}
	.st86{clip-path:url(#SVGID_166_);}
	
		.st87{clip-path:url(#SVGID_168_);fill:none;stroke:#000000;stroke-width:0.9935;stroke-linecap:square;stroke-linejoin:round;stroke-miterlimit:10;}
	.st88{clip-path:url(#SVGID_170_);}
	
		.st89{clip-path:url(#SVGID_172_);fill:none;stroke:#000000;stroke-width:0.9935;stroke-linecap:square;stroke-linejoin:round;stroke-miterlimit:10;}
	.st90{clip-path:url(#SVGID_174_);}
	
		.st91{clip-path:url(#SVGID_176_);fill:none;stroke:#E52521;stroke-width:0.9935;stroke-linecap:square;stroke-linejoin:round;stroke-miterlimit:10;}
	.st92{clip-path:url(#SVGID_178_);}
	
		.st93{clip-path:url(#SVGID_180_);fill:none;stroke:#E52521;stroke-width:0.9935;stroke-linecap:square;stroke-linejoin:round;stroke-miterlimit:10;}
	.st94{clip-path:url(#SVGID_182_);}
	
		.st95{clip-path:url(#SVGID_184_);fill:none;stroke:#E52521;stroke-width:0.9935;stroke-linecap:square;stroke-linejoin:round;stroke-miterlimit:10;}
	.st96{clip-path:url(#SVGID_186_);fill:none;stroke:#000000;stroke-width:0.5299;stroke-linecap:square;stroke-miterlimit:10;}
	.st97{clip-path:url(#SVGID_188_);fill:none;stroke:#000000;stroke-width:0.5299;stroke-linecap:square;stroke-miterlimit:10;}
	.st98{clip-path:url(#SVGID_190_);fill:none;stroke:#000000;stroke-width:0.5299;stroke-linecap:square;stroke-miterlimit:10;}
	.st99{clip-path:url(#SVGID_192_);fill:none;stroke:#000000;stroke-width:0.5299;stroke-linecap:square;stroke-miterlimit:10;}
	.st100{fill:#1E1E1C;}
	.st101{fill:none;stroke:#000000;stroke-width:0.5;stroke-miterlimit:10;}
	.st102{fill:none;stroke:#000000;stroke-width:0.9935;stroke-linecap:square;stroke-linejoin:round;stroke-miterlimit:10;}
	.st103{fill:none;stroke:#E52521;stroke-width:0.9935;stroke-linecap:square;stroke-linejoin:round;stroke-miterlimit:10;}
	.st104{fill:#020203;}
	
		.st105{opacity:0.7;fill:none;stroke:#000000;stroke-width:0.2506;stroke-linecap:square;stroke-linejoin:round;stroke-miterlimit:10;enable-background:new    ;}
</style>
<image style="overflow:visible;enable-background:new    ;" width="523" height="400" xlink:href="C17D10E5.png"  transform="matrix(0.2606 0 0 0.2636 242.2396 10.9869)">
</image>
<image style="overflow:visible;enable-background:new    ;" width="529" height="404" xlink:href="C17D10E7.png"  transform="matrix(0.261 0 0 0.261 44.1331 11.0008)">
</image>
<g>
	<g>
		<defs>
			<rect id="SVGID_1_" x="80" y="114.2" width="286.1" height="190.8"/>
		</defs>
		<clipPath id="SVGID_2_">
			<use xlink:href="#SVGID_1_"  style="overflow:visible;"/>
		</clipPath>
		<rect x="115.7" y="137.1" class="st0" width="221.8" height="144"/>
	</g>
	<g>
		<defs>
			<rect id="SVGID_3_" x="80" y="114.2" width="286.1" height="190.8"/>
		</defs>
		<clipPath id="SVGID_4_">
			<use xlink:href="#SVGID_3_"  style="overflow:visible;"/>
		</clipPath>
		<g class="st1">
			<g>
				<defs>
					<rect id="SVGID_5_" x="115.7" y="137.1" width="221.8" height="144"/>
				</defs>
				<clipPath id="SVGID_6_">
					<use xlink:href="#SVGID_5_"  style="overflow:visible;"/>
				</clipPath>
				<g class="st2">
					<polygon class="st3" points="125.8,197.4 125.8,225.6 128.1,225.6 130.4,224.9 132.7,224.8 135.1,219.9 137.4,216.7 
						139.7,216.7 142,214.8 144.3,214.8 146.7,192.5 149,190.9 151.3,190.9 153.6,190.9 155.9,190.9 158.2,189.9 160.6,185.7 
						162.9,184.9 165.2,184.9 167.5,178 169.8,176.8 172.1,176.8 174.5,174.9 176.8,174.9 179.1,174.9 181.4,170.7 183.7,170.7 
						186,170.4 188.4,170.4 190.7,170.2 193,170.1 195.3,166.6 197.6,166.3 199.9,166.1 202.3,165.8 204.6,165.2 206.9,165.2 
						209.2,165.2 211.5,165 213.8,165 216.2,165 218.5,164.4 220.8,163.9 223.1,163.9 225.4,163.5 227.8,163.5 230.1,163.5 
						232.4,163.4 234.7,163.4 237,162.4 239.3,162.4 241.7,162.4 244,162.4 246.3,162.4 248.6,159.7 250.9,159.7 253.2,159.7 
						255.6,159.6 257.9,159.6 260.2,159.6 262.5,159.6 264.8,159.6 267.1,159.6 269.5,159.6 271.8,158.9 274.1,158.9 276.4,158.9 
						278.7,158.9 281,158.9 281,156 278.7,156 276.4,156 274.1,156 271.8,156 269.5,156 267.1,156 264.8,156 262.5,156 260.2,156 
						257.9,156 255.6,156 253.2,156 250.9,156 248.6,156.1 246.3,156.1 244,156.1 241.7,156.1 239.3,156.5 237,156.5 234.7,157 
						232.4,157 230.1,157 227.8,157.1 225.4,157.1 223.1,157.5 220.8,157.5 218.5,157.8 216.2,157.8 213.8,157.8 211.5,157.8 
						209.2,158.1 206.9,158.1 204.6,158.1 202.3,158.1 199.9,158.4 197.6,159.1 195.3,159.1 193,161.4 190.7,161.6 188.4,161.6 
						186,161.6 183.7,161.7 181.4,161.7 179.1,161.7 176.8,161.8 174.5,161.9 172.1,161.9 169.8,161.9 167.5,161.9 165.2,168.1 
						162.9,168.1 160.6,168.6 158.2,180.4 155.9,180.4 153.6,180.4 151.3,180.4 149,182 146.7,182 144.3,185.7 142,186.6 
						139.7,188.5 137.4,189.9 135.1,194.7 132.7,194.7 130.4,197.4 128.1,197.4 					"/>
					<polygon class="st4" points="125.8,197.4 125.8,225.6 128.1,225.6 130.4,224.9 132.7,224.8 135.1,219.9 137.4,216.7 
						139.7,216.7 142,214.8 144.3,214.8 146.7,192.5 149,190.9 151.3,190.9 153.6,190.9 155.9,190.9 158.2,189.9 160.6,185.7 
						162.9,184.9 165.2,184.9 167.5,178 169.8,176.8 172.1,176.8 174.5,174.9 176.8,174.9 179.1,174.9 181.4,170.7 183.7,170.7 
						186,170.4 188.4,170.4 190.7,170.2 193,170.1 195.3,166.6 197.6,166.3 199.9,166.1 202.3,165.8 204.6,165.2 206.9,165.2 
						209.2,165.2 211.5,165 213.8,165 216.2,165 218.5,164.4 220.8,163.9 223.1,163.9 225.4,163.5 227.8,163.5 230.1,163.5 
						232.4,163.4 234.7,163.4 237,162.4 239.3,162.4 241.7,162.4 244,162.4 246.3,162.4 248.6,159.7 250.9,159.7 253.2,159.7 
						255.6,159.6 257.9,159.6 260.2,159.6 262.5,159.6 264.8,159.6 267.1,159.6 269.5,159.6 271.8,158.9 274.1,158.9 276.4,158.9 
						278.7,158.9 281,158.9 281,156 278.7,156 276.4,156 274.1,156 271.8,156 269.5,156 267.1,156 264.8,156 262.5,156 260.2,156 
						257.9,156 255.6,156 253.2,156 250.9,156 248.6,156.1 246.3,156.1 244,156.1 241.7,156.1 239.3,156.5 237,156.5 234.7,157 
						232.4,157 230.1,157 227.8,157.1 225.4,157.1 223.1,157.5 220.8,157.5 218.5,157.8 216.2,157.8 213.8,157.8 211.5,157.8 
						209.2,158.1 206.9,158.1 204.6,158.1 202.3,158.1 199.9,158.4 197.6,159.1 195.3,159.1 193,161.4 190.7,161.6 188.4,161.6 
						186,161.6 183.7,161.7 181.4,161.7 179.1,161.7 176.8,161.8 174.5,161.9 172.1,161.9 169.8,161.9 167.5,161.9 165.2,168.1 
						162.9,168.1 160.6,168.6 158.2,180.4 155.9,180.4 153.6,180.4 151.3,180.4 149,182 146.7,182 144.3,185.7 142,186.6 
						139.7,188.5 137.4,189.9 135.1,194.7 132.7,194.7 130.4,197.4 128.1,197.4 					"/>
				</g>
			</g>
		</g>
	</g>
	<g>
		<defs>
			<rect id="SVGID_7_" x="80" y="114.2" width="286.1" height="190.8"/>
		</defs>
		<clipPath id="SVGID_8_">
			<use xlink:href="#SVGID_7_"  style="overflow:visible;"/>
		</clipPath>
		<g class="st5">
			<g>
				<defs>
					<rect id="SVGID_9_" x="115.7" y="137.1" width="221.8" height="144"/>
				</defs>
				<clipPath id="SVGID_10_">
					<use xlink:href="#SVGID_9_"  style="overflow:visible;"/>
				</clipPath>
				<g class="st6">
					<polygon class="st7" points="125.8,270.6 125.8,274.6 128.1,261.3 130.4,250.8 132.7,248.6 135.1,242.4 137.4,241.9 
						139.7,237.3 142,236.3 144.3,236.3 146.7,236.3 149,236.3 151.3,236.1 153.6,236.1 155.9,228.4 158.2,227.4 160.6,226 
						162.9,225.5 165.2,225.5 167.5,225.5 169.8,225.5 172.1,225.5 174.5,218.3 176.8,218.3 179.1,209.3 181.4,208.8 183.7,208.6 
						186,207.9 188.4,207.6 190.7,201.6 193,201.6 195.3,200.4 197.6,193.2 199.9,192.5 202.3,192.4 204.6,192.1 206.9,192.1 
						209.2,192.1 211.5,192.1 213.8,192 216.2,192 218.5,190.6 220.8,190.6 223.1,190.6 225.4,189.4 227.8,188.4 230.1,183.7 
						232.4,182.9 234.7,182.9 237,182.9 239.3,182.9 241.7,182.7 244,182.7 246.3,182.7 248.6,175.6 250.9,175.6 253.2,175.6 
						255.6,175.6 257.9,175.6 260.2,174.4 262.5,174.4 264.8,174.4 267.1,174.4 269.5,174.4 271.8,173.9 274.1,173.7 276.4,173.2 
						278.7,173 281,173 283.4,173 285.7,170.3 288,170.1 290.3,169.6 292.6,169.6 294.9,167.5 297.3,166.1 299.6,166 301.9,166 
						304.2,166 306.5,163.4 308.8,163.4 311.2,161.3 313.5,161.3 315.8,161.3 318.1,159.6 320.4,158.9 322.8,158.9 325.1,158.9 
						327.4,158.9 327.4,143.7 325.1,143.7 322.8,143.7 320.4,143.7 318.1,144.4 315.8,152.1 313.5,152.1 311.2,152.1 308.8,154.2 
						306.5,154.2 304.2,154.2 301.9,154.2 299.6,154.2 297.3,154.3 294.9,159.7 292.6,159.7 290.3,159.7 288,159.7 285.7,159.7 
						283.4,163.8 281,163.8 278.7,165.1 276.4,165.8 274.1,165.9 271.8,166 269.5,166.3 267.1,166.3 264.8,166.3 262.5,166.3 
						260.2,166.3 257.9,168 255.6,168 253.2,168 250.9,168 248.6,168 246.3,168 244,168 241.7,168 239.3,168 237,168 234.7,168 
						232.4,168 230.1,169.7 227.8,175.3 225.4,175.3 223.1,175.4 220.8,175.4 218.5,179.1 216.2,180.1 213.8,180.1 211.5,180.2 
						209.2,180.2 206.9,180.2 204.6,180.2 202.3,180.6 199.9,180.6 197.6,180.6 195.3,187.7 193,189 190.7,191 188.4,191 186,191 
						183.7,194.6 181.4,194.6 179.1,195.1 176.8,203.8 174.5,204 172.1,206.1 169.8,206.1 167.5,206.1 165.2,206.1 162.9,218.8 
						160.6,218.8 158.2,218.8 155.9,223 153.6,229.4 151.3,229.4 149,230.2 146.7,230.2 144.3,230.2 142,235.9 139.7,236.3 
						137.4,239.8 135.1,239.8 132.7,239.8 130.4,243.6 128.1,248.6 					"/>
					<polygon class="st8" points="125.8,270.6 125.8,274.6 128.1,261.3 130.4,250.8 132.7,248.6 135.1,242.4 137.4,241.9 
						139.7,237.3 142,236.3 144.3,236.3 146.7,236.3 149,236.3 151.3,236.1 153.6,236.1 155.9,228.4 158.2,227.4 160.6,226 
						162.9,225.5 165.2,225.5 167.5,225.5 169.8,225.5 172.1,225.5 174.5,218.3 176.8,218.3 179.1,209.3 181.4,208.8 183.7,208.6 
						186,207.9 188.4,207.6 190.7,201.6 193,201.6 195.3,200.4 197.6,193.2 199.9,192.5 202.3,192.4 204.6,192.1 206.9,192.1 
						209.2,192.1 211.5,192.1 213.8,192 216.2,192 218.5,190.6 220.8,190.6 223.1,190.6 225.4,189.4 227.8,188.4 230.1,183.7 
						232.4,182.9 234.7,182.9 237,182.9 239.3,182.9 241.7,182.7 244,182.7 246.3,182.7 248.6,175.6 250.9,175.6 253.2,175.6 
						255.6,175.6 257.9,175.6 260.2,174.4 262.5,174.4 264.8,174.4 267.1,174.4 269.5,174.4 271.8,173.9 274.1,173.7 276.4,173.2 
						278.7,173 281,173 283.4,173 285.7,170.3 288,170.1 290.3,169.6 292.6,169.6 294.9,167.5 297.3,166.1 299.6,166 301.9,166 
						304.2,166 306.5,163.4 308.8,163.4 311.2,161.3 313.5,161.3 315.8,161.3 318.1,159.6 320.4,158.9 322.8,158.9 325.1,158.9 
						327.4,158.9 327.4,143.7 325.1,143.7 322.8,143.7 320.4,143.7 318.1,144.4 315.8,152.1 313.5,152.1 311.2,152.1 308.8,154.2 
						306.5,154.2 304.2,154.2 301.9,154.2 299.6,154.2 297.3,154.3 294.9,159.7 292.6,159.7 290.3,159.7 288,159.7 285.7,159.7 
						283.4,163.8 281,163.8 278.7,165.1 276.4,165.8 274.1,165.9 271.8,166 269.5,166.3 267.1,166.3 264.8,166.3 262.5,166.3 
						260.2,166.3 257.9,168 255.6,168 253.2,168 250.9,168 248.6,168 246.3,168 244,168 241.7,168 239.3,168 237,168 234.7,168 
						232.4,168 230.1,169.7 227.8,175.3 225.4,175.3 223.1,175.4 220.8,175.4 218.5,179.1 216.2,180.1 213.8,180.1 211.5,180.2 
						209.2,180.2 206.9,180.2 204.6,180.2 202.3,180.6 199.9,180.6 197.6,180.6 195.3,187.7 193,189 190.7,191 188.4,191 186,191 
						183.7,194.6 181.4,194.6 179.1,195.1 176.8,203.8 174.5,204 172.1,206.1 169.8,206.1 167.5,206.1 165.2,206.1 162.9,218.8 
						160.6,218.8 158.2,218.8 155.9,223 153.6,229.4 151.3,229.4 149,230.2 146.7,230.2 144.3,230.2 142,235.9 139.7,236.3 
						137.4,239.8 135.1,239.8 132.7,239.8 130.4,243.6 128.1,248.6 					"/>
				</g>
			</g>
		</g>
	</g>
	<g>
		<defs>
			<rect id="SVGID_11_" x="80" y="114.2" width="286.1" height="190.8"/>
		</defs>
		<clipPath id="SVGID_12_">
			<use xlink:href="#SVGID_11_"  style="overflow:visible;"/>
		</clipPath>
		<line class="st9" x1="125.8" y1="281.1" x2="125.8" y2="283.5"/>
	</g>
	<g>
		<defs>
			<rect id="SVGID_13_" x="80" y="114.2" width="286.1" height="190.8"/>
		</defs>
		<clipPath id="SVGID_14_">
			<use xlink:href="#SVGID_13_"  style="overflow:visible;"/>
		</clipPath>
		<line class="st10" x1="125.8" y1="281.1" x2="125.8" y2="283.5"/>
	</g>
	<g>
		<defs>
			<rect id="SVGID_15_" x="80" y="114.2" width="286.1" height="190.8"/>
		</defs>
		<clipPath id="SVGID_16_">
			<use xlink:href="#SVGID_15_"  style="overflow:visible;"/>
		</clipPath>
		<path class="st11" d="M125.8,285.9c0.7,0,1.2,0.3,1.6,0.8c0.4,0.6,0.6,1.4,0.6,2.4c0,1.1-0.2,1.9-0.6,2.4
			c-0.4,0.5-0.9,0.8-1.6,0.8s-1.2-0.3-1.6-0.8c-0.4-0.5-0.5-1.4-0.5-2.4c0-1,0.2-1.9,0.5-2.4C124.5,286.2,125.1,285.9,125.8,285.9z
			 M125.8,286.6c-0.4,0-0.8,0.2-1,0.6s-0.3,1.1-0.3,1.9s0.1,1.5,0.3,1.9c0.2,0.4,0.6,0.6,1,0.6c0.4,0,0.8-0.2,1-0.6s0.3-1.1,0.3-1.9
			s-0.1-1.5-0.3-1.9C126.6,286.8,126.2,286.6,125.8,286.6z"/>
	</g>
	<g>
		<defs>
			<rect id="SVGID_17_" x="80" y="114.2" width="286.1" height="190.8"/>
		</defs>
		<clipPath id="SVGID_18_">
			<use xlink:href="#SVGID_17_"  style="overflow:visible;"/>
		</clipPath>
		<line class="st12" x1="172.1" y1="281.1" x2="172.1" y2="283.5"/>
	</g>
	<g>
		<defs>
			<rect id="SVGID_19_" x="80" y="114.2" width="286.1" height="190.8"/>
		</defs>
		<clipPath id="SVGID_20_">
			<use xlink:href="#SVGID_19_"  style="overflow:visible;"/>
		</clipPath>
		<line class="st13" x1="172.1" y1="281.1" x2="172.1" y2="283.5"/>
	</g>
	<g>
		<defs>
			<rect id="SVGID_21_" x="80" y="114.2" width="286.1" height="190.8"/>
		</defs>
		<clipPath id="SVGID_22_">
			<use xlink:href="#SVGID_21_"  style="overflow:visible;"/>
		</clipPath>
		<path class="st14" d="M168.3,291.6h3v0.7h-4v-0.7c0.3-0.3,0.8-0.8,1.3-1.3c0.6-0.6,0.9-0.9,1.1-1.1c0.3-0.3,0.5-0.6,0.6-0.8
			c0.1-0.2,0.2-0.4,0.2-0.6c0-0.3-0.1-0.6-0.3-0.8c-0.2-0.2-0.5-0.3-0.9-0.3c-0.3,0-0.6,0-0.8,0.1c-0.3,0.1-0.6,0.2-0.9,0.4v-0.9
			c0.3-0.1,0.7-0.2,1-0.3c0.3-0.1,0.6-0.1,0.8-0.1c0.6,0,1.2,0.2,1.6,0.5s0.6,0.8,0.6,1.3c0,0.3-0.1,0.5-0.2,0.7
			c-0.1,0.2-0.3,0.5-0.5,0.8c-0.1,0.1-0.3,0.3-0.7,0.7C169.5,290.4,169,290.9,168.3,291.6z"/>
	</g>
	<g>
		<defs>
			<rect id="SVGID_23_" x="80" y="114.2" width="286.1" height="190.8"/>
		</defs>
		<clipPath id="SVGID_24_">
			<use xlink:href="#SVGID_23_"  style="overflow:visible;"/>
		</clipPath>
		<path class="st15" d="M174.9,285.9c0.7,0,1.2,0.3,1.6,0.8c0.4,0.6,0.6,1.4,0.6,2.4c0,1.1-0.2,1.9-0.6,2.4
			c-0.4,0.5-0.9,0.8-1.6,0.8c-0.7,0-1.2-0.3-1.6-0.8c-0.4-0.5-0.6-1.4-0.6-2.4c0-1,0.2-1.9,0.6-2.4
			C173.6,286.2,174.2,285.9,174.9,285.9z M174.9,286.6c-0.4,0-0.8,0.2-1,0.6s-0.3,1.1-0.3,1.9s0.1,1.5,0.3,1.9
			c0.2,0.4,0.6,0.6,1,0.6c0.4,0,0.8-0.2,1-0.6s0.3-1.1,0.3-1.9s-0.1-1.5-0.3-1.9C175.6,286.8,175.3,286.6,174.9,286.6z"/>
	</g>
	<g>
		<defs>
			<rect id="SVGID_25_" x="80" y="114.2" width="286.1" height="190.8"/>
		</defs>
		<clipPath id="SVGID_26_">
			<use xlink:href="#SVGID_25_"  style="overflow:visible;"/>
		</clipPath>
		<line class="st16" x1="218.5" y1="281.1" x2="218.5" y2="283.5"/>
	</g>
	<g>
		<defs>
			<rect id="SVGID_27_" x="80" y="114.2" width="286.1" height="190.8"/>
		</defs>
		<clipPath id="SVGID_28_">
			<use xlink:href="#SVGID_27_"  style="overflow:visible;"/>
		</clipPath>
		<line class="st17" x1="218.5" y1="281.1" x2="218.5" y2="283.5"/>
	</g>
	<g>
		<defs>
			<rect id="SVGID_29_" x="80" y="114.2" width="286.1" height="190.8"/>
		</defs>
		<clipPath id="SVGID_30_">
			<use xlink:href="#SVGID_29_"  style="overflow:visible;"/>
		</clipPath>
		<path class="st18" d="M216,286h1.1v4.1h0.9v0.7h-0.9v1.5h-0.8v-1.5h-2.8V290L216,286z M216.3,286.8l-2.1,3.4h2.1V286.8z"/>
	</g>
	<g>
		<defs>
			<rect id="SVGID_31_" x="80" y="114.2" width="286.1" height="190.8"/>
		</defs>
		<clipPath id="SVGID_32_">
			<use xlink:href="#SVGID_31_"  style="overflow:visible;"/>
		</clipPath>
		<path class="st19" d="M221.2,285.9c0.7,0,1.2,0.3,1.6,0.8c0.4,0.6,0.6,1.4,0.6,2.4c0,1.1-0.2,1.9-0.6,2.4
			c-0.4,0.5-0.9,0.8-1.6,0.8c-0.7,0-1.2-0.3-1.6-0.8s-0.6-1.4-0.6-2.4c0-1,0.2-1.9,0.6-2.4C220,286.2,220.5,285.9,221.2,285.9z
			 M221.2,286.6c-0.4,0-0.8,0.2-1,0.6s-0.3,1.1-0.3,1.9s0.1,1.5,0.3,1.9c0.2,0.4,0.6,0.6,1,0.6s0.8-0.2,1-0.6s0.3-1.1,0.3-1.9
			s-0.1-1.5-0.3-1.9C222,286.8,221.7,286.6,221.2,286.6z"/>
	</g>
	<g>
		<defs>
			<rect id="SVGID_33_" x="80" y="114.2" width="286.1" height="190.8"/>
		</defs>
		<clipPath id="SVGID_34_">
			<use xlink:href="#SVGID_33_"  style="overflow:visible;"/>
		</clipPath>
		<line class="st20" x1="264.8" y1="281.1" x2="264.8" y2="283.5"/>
	</g>
	<g>
		<defs>
			<rect id="SVGID_35_" x="80" y="114.2" width="286.1" height="190.8"/>
		</defs>
		<clipPath id="SVGID_36_">
			<use xlink:href="#SVGID_35_"  style="overflow:visible;"/>
		</clipPath>
		<line class="st21" x1="264.8" y1="281.1" x2="264.8" y2="283.5"/>
	</g>
	<g>
		<defs>
			<rect id="SVGID_37_" x="80" y="114.2" width="286.1" height="190.8"/>
		</defs>
		<clipPath id="SVGID_38_">
			<use xlink:href="#SVGID_37_"  style="overflow:visible;"/>
		</clipPath>
		<path class="st22" d="M263.9,286.2v0.8c-0.2-0.1-0.4-0.2-0.6-0.2c-0.2,0-0.4-0.1-0.6-0.1c-0.6,0-1,0.2-1.3,0.6
			c-0.3,0.4-0.5,1-0.5,1.7c0.2-0.2,0.4-0.4,0.6-0.6s0.5-0.2,0.8-0.2c0.6,0,1.1,0.2,1.5,0.6c0.4,0.4,0.6,0.9,0.6,1.6
			c0,0.6-0.2,1.2-0.6,1.5c-0.4,0.4-0.9,0.6-1.5,0.6c-0.7,0-1.3-0.3-1.7-0.8c-0.4-0.5-0.6-1.4-0.6-2.4c0-1,0.2-1.8,0.7-2.4
			c0.5-0.6,1.1-0.9,1.9-0.9c0.2,0,0.4,0,0.6,0.1C263.4,286,263.6,286.1,263.9,286.2z M262.2,288.8c-0.4,0-0.7,0.1-0.9,0.4
			c-0.2,0.3-0.3,0.6-0.3,1.1c0,0.5,0.1,0.8,0.3,1.1c0.2,0.3,0.5,0.4,0.9,0.4c0.4,0,0.7-0.1,0.9-0.4s0.3-0.6,0.3-1.1
			c0-0.5-0.1-0.8-0.3-1.1C262.9,289,262.6,288.8,262.2,288.8z"/>
	</g>
	<g>
		<defs>
			<rect id="SVGID_39_" x="80" y="114.2" width="286.1" height="190.8"/>
		</defs>
		<clipPath id="SVGID_40_">
			<use xlink:href="#SVGID_39_"  style="overflow:visible;"/>
		</clipPath>
		<path class="st23" d="M267.6,285.9c0.7,0,1.2,0.3,1.6,0.8c0.4,0.6,0.6,1.4,0.6,2.4c0,1.1-0.2,1.9-0.6,2.4
			c-0.4,0.5-0.9,0.8-1.6,0.8s-1.2-0.3-1.6-0.8s-0.6-1.4-0.6-2.4c0-1,0.2-1.9,0.6-2.4C266.3,286.2,266.9,285.9,267.6,285.9z
			 M267.6,286.6c-0.4,0-0.8,0.2-1,0.6s-0.3,1.1-0.3,1.9s0.1,1.5,0.3,1.9c0.2,0.4,0.6,0.6,1,0.6s0.8-0.2,1-0.6s0.3-1.1,0.3-1.9
			s-0.1-1.5-0.3-1.9C268.3,286.8,268,286.6,267.6,286.6z"/>
	</g>
	<g>
		<defs>
			<rect id="SVGID_41_" x="80" y="114.2" width="286.1" height="190.8"/>
		</defs>
		<clipPath id="SVGID_42_">
			<use xlink:href="#SVGID_41_"  style="overflow:visible;"/>
		</clipPath>
		<line class="st24" x1="311.2" y1="281.1" x2="311.2" y2="283.5"/>
	</g>
	<g>
		<defs>
			<rect id="SVGID_43_" x="80" y="114.2" width="286.1" height="190.8"/>
		</defs>
		<clipPath id="SVGID_44_">
			<use xlink:href="#SVGID_43_"  style="overflow:visible;"/>
		</clipPath>
		<line class="st25" x1="311.2" y1="281.1" x2="311.2" y2="283.5"/>
	</g>
	<g>
		<defs>
			<rect id="SVGID_45_" x="80" y="114.2" width="286.1" height="190.8"/>
		</defs>
		<clipPath id="SVGID_46_">
			<use xlink:href="#SVGID_45_"  style="overflow:visible;"/>
		</clipPath>
		<path class="st26" d="M307.3,287.6c0,0.3,0.1,0.6,0.3,0.8c0.2,0.2,0.5,0.3,0.9,0.3c0.4,0,0.6-0.1,0.9-0.3c0.2-0.2,0.3-0.4,0.3-0.8
			s-0.1-0.6-0.3-0.8c-0.2-0.2-0.5-0.3-0.9-0.3c-0.4,0-0.6,0.1-0.9,0.3C307.4,287.1,307.3,287.3,307.3,287.6z M307.6,289
			c-0.4-0.1-0.6-0.3-0.9-0.5s-0.3-0.5-0.3-0.9c0-0.5,0.2-0.9,0.5-1.2c0.4-0.3,0.8-0.4,1.5-0.4c0.6,0,1.1,0.1,1.5,0.4
			c0.4,0.3,0.5,0.7,0.5,1.2c0,0.4-0.1,0.7-0.3,0.9c-0.2,0.3-0.5,0.4-0.8,0.5c0.4,0.1,0.7,0.3,1,0.6c0.2,0.3,0.3,0.6,0.3,1
			c0,0.6-0.2,1.1-0.6,1.4c-0.4,0.3-0.9,0.5-1.6,0.5s-1.2-0.1-1.6-0.5c-0.4-0.3-0.5-0.8-0.5-1.4c0-0.4,0.1-0.7,0.3-1
			C306.8,289.3,307.2,289.1,307.6,289z M308.4,289.3c-0.4,0-0.7,0.1-1,0.3c-0.2,0.2-0.3,0.5-0.3,0.9s0.1,0.7,0.3,0.9
			c0.2,0.2,0.5,0.3,1,0.3c0.4,0,0.7-0.1,1-0.3c0.2-0.2,0.4-0.5,0.4-0.9s-0.1-0.7-0.3-0.9C309.2,289.5,308.8,289.3,308.4,289.3z"/>
	</g>
	<g>
		<defs>
			<rect id="SVGID_47_" x="80" y="114.2" width="286.1" height="190.8"/>
		</defs>
		<clipPath id="SVGID_48_">
			<use xlink:href="#SVGID_47_"  style="overflow:visible;"/>
		</clipPath>
		<path class="st27" d="M313.9,285.9c0.7,0,1.2,0.3,1.6,0.8c0.4,0.6,0.6,1.4,0.6,2.4c0,1.1-0.2,1.9-0.6,2.4
			c-0.4,0.5-0.9,0.8-1.6,0.8s-1.2-0.3-1.6-0.8s-0.6-1.4-0.6-2.4c0-1,0.2-1.9,0.6-2.4C312.7,286.2,313.2,285.9,313.9,285.9z
			 M313.9,286.6c-0.4,0-0.8,0.2-1,0.6s-0.3,1.1-0.3,1.9s0.1,1.5,0.3,1.9c0.2,0.4,0.6,0.6,1,0.6s0.8-0.2,1-0.6s0.3-1.1,0.3-1.9
			s-0.1-1.5-0.3-1.9C314.7,286.8,314.3,286.6,313.9,286.6z"/>
	</g>
	<g>
		<defs>
			<rect id="SVGID_49_" x="80" y="114.2" width="286.1" height="190.8"/>
		</defs>
		<clipPath id="SVGID_50_">
			<use xlink:href="#SVGID_49_"  style="overflow:visible;"/>
		</clipPath>
		<line class="st28" x1="115.7" y1="276" x2="113.4" y2="276"/>
	</g>
	<g>
		<defs>
			<rect id="SVGID_51_" x="80" y="114.2" width="286.1" height="190.8"/>
		</defs>
		<clipPath id="SVGID_52_">
			<use xlink:href="#SVGID_51_"  style="overflow:visible;"/>
		</clipPath>
		<line class="st29" x1="115.7" y1="276" x2="113.4" y2="276"/>
	</g>
	<g>
		<defs>
			<rect id="SVGID_53_" x="80" y="114.2" width="286.1" height="190.8"/>
		</defs>
		<clipPath id="SVGID_54_">
			<use xlink:href="#SVGID_53_"  style="overflow:visible;"/>
		</clipPath>
		<path class="st30" d="M89.2,272.9c0.7,0,1.2,0.3,1.6,0.8c0.4,0.6,0.6,1.4,0.6,2.4c0,1.1-0.2,1.9-0.6,2.4c-0.4,0.5-0.9,0.8-1.6,0.8
			c-0.7,0-1.2-0.3-1.6-0.8c-0.4-0.5-0.5-1.4-0.5-2.4c0-1,0.2-1.9,0.5-2.4C87.9,273.2,88.5,272.9,89.2,272.9z M89.2,273.6
			c-0.4,0-0.8,0.2-1,0.6s-0.3,1.1-0.3,1.9s0.1,1.5,0.3,1.9c0.2,0.4,0.5,0.6,1,0.6s0.8-0.2,1-0.6c0.2-0.4,0.3-1.1,0.3-1.9
			s-0.1-1.5-0.3-1.9S89.6,273.6,89.2,273.6z"/>
	</g>
	<g>
		<defs>
			<rect id="SVGID_55_" x="80" y="114.2" width="286.1" height="190.8"/>
		</defs>
		<clipPath id="SVGID_56_">
			<use xlink:href="#SVGID_55_"  style="overflow:visible;"/>
		</clipPath>
		<rect x="92.8" y="278.2" class="st31" width="0.9" height="1.1"/>
	</g>
	<g>
		<defs>
			<rect id="SVGID_57_" x="80" y="114.2" width="286.1" height="190.8"/>
		</defs>
		<clipPath id="SVGID_58_">
			<use xlink:href="#SVGID_57_"  style="overflow:visible;"/>
		</clipPath>
		<polygon class="st32" points="95.7,278.6 97.1,278.6 97.1,273.8 95.6,274.1 95.6,273.3 97.1,273 98,273 98,278.6 99.3,278.6 
			99.3,279.3 95.7,279.3 		"/>
	</g>
	<g>
		<defs>
			<rect id="SVGID_59_" x="80" y="114.2" width="286.1" height="190.8"/>
		</defs>
		<clipPath id="SVGID_60_">
			<use xlink:href="#SVGID_59_"  style="overflow:visible;"/>
		</clipPath>
		<polygon class="st33" points="100.8,273 104.9,273 104.9,273.4 102.6,279.3 101.7,279.3 103.9,273.7 100.8,273.7 		"/>
	</g>
	<g>
		<defs>
			<rect id="SVGID_61_" x="80" y="114.2" width="286.1" height="190.8"/>
		</defs>
		<clipPath id="SVGID_62_">
			<use xlink:href="#SVGID_61_"  style="overflow:visible;"/>
		</clipPath>
		<path class="st34" d="M106.5,273h3.3v0.7h-2.6v1.5c0.1,0,0.3-0.1,0.4-0.1c0.1,0,0.3,0,0.4,0c0.7,0,1.3,0.2,1.7,0.6
			c0.4,0.4,0.6,0.9,0.6,1.6c0,0.7-0.2,1.2-0.6,1.6s-1,0.5-1.8,0.5c-0.3,0-0.5,0-0.8-0.1c-0.3,0-0.6-0.1-0.8-0.2v-0.9
			c0.3,0.1,0.5,0.2,0.8,0.3c0.3,0.1,0.6,0.1,0.8,0.1c0.5,0,0.9-0.1,1.2-0.4s0.4-0.6,0.4-1c0-0.4-0.2-0.8-0.4-1
			c-0.3-0.3-0.7-0.4-1.2-0.4c-0.2,0-0.5,0-0.7,0.1s-0.5,0.1-0.7,0.2L106.5,273L106.5,273z"/>
	</g>
	<g>
		<defs>
			<rect id="SVGID_63_" x="80" y="114.2" width="286.1" height="190.8"/>
		</defs>
		<clipPath id="SVGID_64_">
			<use xlink:href="#SVGID_63_"  style="overflow:visible;"/>
		</clipPath>
		<line class="st35" x1="115.7" y1="257.5" x2="113.4" y2="257.5"/>
	</g>
	<g>
		<defs>
			<rect id="SVGID_65_" x="80" y="114.2" width="286.1" height="190.8"/>
		</defs>
		<clipPath id="SVGID_66_">
			<use xlink:href="#SVGID_65_"  style="overflow:visible;"/>
		</clipPath>
		<line class="st36" x1="115.7" y1="257.5" x2="113.4" y2="257.5"/>
	</g>
	<g>
		<defs>
			<rect id="SVGID_67_" x="80" y="114.2" width="286.1" height="190.8"/>
		</defs>
		<clipPath id="SVGID_68_">
			<use xlink:href="#SVGID_67_"  style="overflow:visible;"/>
		</clipPath>
		<path class="st37" d="M89.2,254.4c0.7,0,1.2,0.3,1.6,0.8c0.4,0.6,0.6,1.4,0.6,2.4c0,1.1-0.2,1.9-0.6,2.4c-0.4,0.5-0.9,0.8-1.6,0.8
			c-0.7,0-1.2-0.3-1.6-0.8c-0.4-0.5-0.5-1.4-0.5-2.4c0-1,0.2-1.9,0.5-2.4C87.9,254.7,88.5,254.4,89.2,254.4z M89.2,255.1
			c-0.4,0-0.8,0.2-1,0.6s-0.3,1.1-0.3,1.9s0.1,1.5,0.3,1.9c0.2,0.4,0.5,0.6,1,0.6s0.8-0.2,1-0.6c0.2-0.4,0.3-1.1,0.3-1.9
			s-0.1-1.5-0.3-1.9S89.6,255.1,89.2,255.1z"/>
	</g>
	<g>
		<defs>
			<rect id="SVGID_69_" x="80" y="114.2" width="286.1" height="190.8"/>
		</defs>
		<clipPath id="SVGID_70_">
			<use xlink:href="#SVGID_69_"  style="overflow:visible;"/>
		</clipPath>
		<rect x="92.8" y="259.7" class="st38" width="0.9" height="1.1"/>
	</g>
	<g>
		<defs>
			<rect id="SVGID_71_" x="80" y="114.2" width="286.1" height="190.8"/>
		</defs>
		<clipPath id="SVGID_72_">
			<use xlink:href="#SVGID_71_"  style="overflow:visible;"/>
		</clipPath>
		<path class="st39" d="M96.3,260.1h3v0.7h-4v-0.7c0.3-0.3,0.8-0.8,1.3-1.3c0.5-0.6,0.9-0.9,1-1.1c0.3-0.3,0.5-0.6,0.6-0.8
			c0.1-0.2,0.2-0.4,0.2-0.6c0-0.3-0.1-0.6-0.3-0.8c-0.2-0.2-0.5-0.3-0.9-0.3c-0.3,0-0.5,0.1-0.8,0.1s-0.6,0.2-1,0.4v-0.9
			c0.3-0.1,0.7-0.2,1-0.3c0.3-0.1,0.6-0.1,0.8-0.1c0.7,0,1.2,0.2,1.6,0.5s0.6,0.8,0.6,1.3c0,0.3,0,0.5-0.2,0.7
			c-0.1,0.2-0.3,0.5-0.5,0.8c-0.1,0.1-0.3,0.3-0.7,0.7C97.5,258.9,97,259.4,96.3,260.1z"/>
	</g>
	<g>
		<defs>
			<rect id="SVGID_73_" x="80" y="114.2" width="286.1" height="190.8"/>
		</defs>
		<clipPath id="SVGID_74_">
			<use xlink:href="#SVGID_73_"  style="overflow:visible;"/>
		</clipPath>
		<path class="st40" d="M102.9,254.4c0.7,0,1.2,0.3,1.6,0.8c0.4,0.6,0.6,1.4,0.6,2.4c0,1.1-0.2,1.9-0.6,2.4
			c-0.4,0.5-0.9,0.8-1.6,0.8s-1.2-0.3-1.6-0.8c-0.4-0.5-0.5-1.4-0.5-2.4c0-1,0.2-1.9,0.5-2.4C101.6,254.7,102.2,254.4,102.9,254.4z
			 M102.9,255.1c-0.4,0-0.8,0.2-1,0.6s-0.3,1.1-0.3,1.9s0.1,1.5,0.3,1.9c0.2,0.4,0.6,0.6,1,0.6c0.4,0,0.8-0.2,1-0.6s0.3-1.1,0.3-1.9
			s-0.1-1.5-0.3-1.9S103.3,255.1,102.9,255.1z"/>
	</g>
	<g>
		<defs>
			<rect id="SVGID_75_" x="80" y="114.2" width="286.1" height="190.8"/>
		</defs>
		<clipPath id="SVGID_76_">
			<use xlink:href="#SVGID_75_"  style="overflow:visible;"/>
		</clipPath>
		<path class="st41" d="M108.3,254.4c0.7,0,1.2,0.3,1.6,0.8c0.4,0.6,0.6,1.4,0.6,2.4c0,1.1-0.2,1.9-0.6,2.4
			c-0.4,0.5-0.9,0.8-1.6,0.8s-1.2-0.3-1.6-0.8c-0.4-0.5-0.6-1.4-0.6-2.4c0-1,0.2-1.9,0.6-2.4C107.1,254.7,107.6,254.4,108.3,254.4z
			 M108.3,255.1c-0.4,0-0.8,0.2-1,0.6s-0.3,1.1-0.3,1.9s0.1,1.5,0.3,1.9c0.2,0.4,0.5,0.6,1,0.6s0.8-0.2,1-0.6s0.3-1.1,0.3-1.9
			s-0.1-1.5-0.3-1.9S108.8,255.1,108.3,255.1z"/>
	</g>
	<g>
		<defs>
			<rect id="SVGID_77_" x="80" y="114.2" width="286.1" height="190.8"/>
		</defs>
		<clipPath id="SVGID_78_">
			<use xlink:href="#SVGID_77_"  style="overflow:visible;"/>
		</clipPath>
		<line class="st42" x1="115.7" y1="239.1" x2="113.4" y2="239.1"/>
	</g>
	<g>
		<defs>
			<rect id="SVGID_79_" x="80" y="114.2" width="286.1" height="190.8"/>
		</defs>
		<clipPath id="SVGID_80_">
			<use xlink:href="#SVGID_79_"  style="overflow:visible;"/>
		</clipPath>
		<line class="st43" x1="115.7" y1="239.1" x2="113.4" y2="239.1"/>
	</g>
	<g>
		<defs>
			<rect id="SVGID_81_" x="80" y="114.2" width="286.1" height="190.8"/>
		</defs>
		<clipPath id="SVGID_82_">
			<use xlink:href="#SVGID_81_"  style="overflow:visible;"/>
		</clipPath>
		<path class="st44" d="M89.2,236c0.7,0,1.2,0.3,1.6,0.8c0.4,0.6,0.6,1.4,0.6,2.4c0,1.1-0.2,1.9-0.6,2.4c-0.4,0.6-0.9,0.8-1.6,0.8
			c-0.7,0-1.2-0.3-1.6-0.8c-0.4-0.6-0.5-1.4-0.5-2.4c0-1.1,0.2-1.9,0.5-2.4C87.9,236.2,88.5,236,89.2,236z M89.2,236.6
			c-0.4,0-0.8,0.2-1,0.6s-0.3,1.1-0.3,1.9s0.1,1.5,0.3,1.9c0.2,0.4,0.5,0.6,1,0.6s0.8-0.2,1-0.6c0.2-0.4,0.3-1.1,0.3-1.9
			s-0.1-1.5-0.3-1.9C89.9,236.8,89.6,236.6,89.2,236.6z"/>
	</g>
	<g>
		<defs>
			<rect id="SVGID_83_" x="80" y="114.2" width="286.1" height="190.8"/>
		</defs>
		<clipPath id="SVGID_84_">
			<use xlink:href="#SVGID_83_"  style="overflow:visible;"/>
		</clipPath>
		<rect x="92.8" y="241.3" class="st45" width="0.9" height="1.1"/>
	</g>
	<g>
		<defs>
			<rect id="SVGID_85_" x="80" y="114.2" width="286.1" height="190.8"/>
		</defs>
		<clipPath id="SVGID_86_">
			<use xlink:href="#SVGID_85_"  style="overflow:visible;"/>
		</clipPath>
		<path class="st46" d="M96.3,241.6h3v0.7h-4v-0.7c0.3-0.3,0.8-0.8,1.3-1.3c0.5-0.6,0.9-0.9,1-1.1c0.3-0.3,0.5-0.6,0.6-0.8
			c0.1-0.2,0.2-0.4,0.2-0.6c0-0.3-0.1-0.6-0.3-0.8c-0.2-0.2-0.5-0.3-0.9-0.3c-0.3,0-0.5,0.1-0.8,0.1s-0.6,0.2-1,0.4v-0.9
			c0.3-0.1,0.7-0.2,1-0.3c0.3-0.1,0.6-0.1,0.8-0.1c0.7,0,1.2,0.2,1.6,0.5s0.6,0.8,0.6,1.3c0,0.3,0,0.5-0.2,0.7
			c-0.1,0.2-0.3,0.5-0.5,0.8c-0.1,0.1-0.3,0.3-0.7,0.7C97.5,240.4,97,240.9,96.3,241.6z"/>
	</g>
	<g>
		<defs>
			<rect id="SVGID_87_" x="80" y="114.2" width="286.1" height="190.8"/>
		</defs>
		<clipPath id="SVGID_88_">
			<use xlink:href="#SVGID_87_"  style="overflow:visible;"/>
		</clipPath>
		<path class="st47" d="M101.8,241.6h3v0.7h-4v-0.7c0.3-0.3,0.8-0.8,1.3-1.3c0.6-0.6,0.9-0.9,1.1-1.1c0.3-0.3,0.5-0.6,0.6-0.8
			c0.1-0.2,0.2-0.4,0.2-0.6c0-0.3-0.1-0.6-0.3-0.8c-0.2-0.2-0.5-0.3-0.9-0.3c-0.3,0-0.6,0.1-0.8,0.1s-0.6,0.2-0.9,0.4v-0.9
			c0.3-0.1,0.7-0.2,1-0.3c0.3-0.1,0.6-0.1,0.8-0.1c0.7,0,1.2,0.2,1.5,0.5s0.6,0.8,0.6,1.3c0,0.3-0.1,0.5-0.2,0.7
			c-0.1,0.2-0.3,0.5-0.5,0.8c-0.1,0.1-0.3,0.3-0.7,0.7C103,240.4,102.5,240.9,101.8,241.6z"/>
	</g>
	<g>
		<defs>
			<rect id="SVGID_89_" x="80" y="114.2" width="286.1" height="190.8"/>
		</defs>
		<clipPath id="SVGID_90_">
			<use xlink:href="#SVGID_89_"  style="overflow:visible;"/>
		</clipPath>
		<path class="st48" d="M106.5,236.1h3.3v0.7h-2.6v1.5c0.1,0,0.3-0.1,0.4-0.1c0.1,0,0.3,0,0.4,0c0.7,0,1.3,0.2,1.7,0.6
			c0.4,0.4,0.6,0.9,0.6,1.6c0,0.7-0.2,1.2-0.6,1.6s-1,0.6-1.8,0.6c-0.3,0-0.5,0-0.8-0.1c-0.3,0-0.6-0.1-0.8-0.2v-0.9
			c0.3,0.1,0.5,0.2,0.8,0.3c0.3,0.1,0.6,0.1,0.8,0.1c0.5,0,0.9-0.1,1.2-0.4c0.3-0.3,0.4-0.6,0.4-1c0-0.4-0.2-0.8-0.4-1
			c-0.3-0.3-0.7-0.4-1.2-0.4c-0.2,0-0.5,0-0.7,0.1s-0.5,0.1-0.7,0.2L106.5,236.1L106.5,236.1z"/>
	</g>
	<g>
		<defs>
			<rect id="SVGID_91_" x="80" y="114.2" width="286.1" height="190.8"/>
		</defs>
		<clipPath id="SVGID_92_">
			<use xlink:href="#SVGID_91_"  style="overflow:visible;"/>
		</clipPath>
		<line class="st49" x1="115.7" y1="220.6" x2="113.4" y2="220.6"/>
	</g>
	<g>
		<defs>
			<rect id="SVGID_93_" x="80" y="114.2" width="286.1" height="190.8"/>
		</defs>
		<clipPath id="SVGID_94_">
			<use xlink:href="#SVGID_93_"  style="overflow:visible;"/>
		</clipPath>
		<line class="st50" x1="115.7" y1="220.6" x2="113.4" y2="220.6"/>
	</g>
	<g>
		<defs>
			<rect id="SVGID_95_" x="80" y="114.2" width="286.1" height="190.8"/>
		</defs>
		<clipPath id="SVGID_96_">
			<use xlink:href="#SVGID_95_"  style="overflow:visible;"/>
		</clipPath>
		<path class="st51" d="M89.2,217.5c0.7,0,1.2,0.3,1.6,0.8c0.4,0.6,0.6,1.4,0.6,2.4c0,1.1-0.2,1.9-0.6,2.4c-0.4,0.6-0.9,0.8-1.6,0.8
			c-0.7,0-1.2-0.3-1.6-0.8c-0.4-0.6-0.5-1.4-0.5-2.4c0-1.1,0.2-1.9,0.5-2.4C87.9,217.8,88.5,217.5,89.2,217.5z M89.2,218.2
			c-0.4,0-0.8,0.2-1,0.6s-0.3,1.1-0.3,1.9s0.1,1.5,0.3,1.9c0.2,0.4,0.5,0.6,1,0.6s0.8-0.2,1-0.6c0.2-0.4,0.3-1.1,0.3-1.9
			s-0.1-1.5-0.3-1.9C89.9,218.4,89.6,218.2,89.2,218.2z"/>
	</g>
	<g>
		<defs>
			<rect id="SVGID_97_" x="80" y="114.2" width="286.1" height="190.8"/>
		</defs>
		<clipPath id="SVGID_98_">
			<use xlink:href="#SVGID_97_"  style="overflow:visible;"/>
		</clipPath>
		<rect x="92.8" y="222.8" class="st52" width="0.9" height="1.1"/>
	</g>
	<g>
		<defs>
			<rect id="SVGID_99_" x="80" y="114.2" width="286.1" height="190.8"/>
		</defs>
		<clipPath id="SVGID_100_">
			<use xlink:href="#SVGID_99_"  style="overflow:visible;"/>
		</clipPath>
		<path class="st53" d="M96.3,223.2h3v0.7h-4v-0.7c0.3-0.3,0.8-0.8,1.3-1.3c0.5-0.6,0.9-0.9,1-1.1c0.3-0.3,0.5-0.6,0.6-0.8
			c0.1-0.2,0.2-0.4,0.2-0.6c0-0.3-0.1-0.6-0.3-0.8c-0.2-0.2-0.5-0.3-0.9-0.3c-0.3,0-0.5,0.1-0.8,0.1s-0.6,0.2-1,0.4v-0.9
			c0.3-0.1,0.7-0.2,1-0.3c0.3-0.1,0.6-0.1,0.8-0.1c0.7,0,1.2,0.2,1.6,0.5s0.6,0.8,0.6,1.3c0,0.3,0,0.5-0.2,0.7
			c-0.1,0.2-0.3,0.5-0.5,0.8c-0.1,0.1-0.3,0.3-0.7,0.7C97.5,221.9,97,222.5,96.3,223.2z"/>
	</g>
	<g>
		<defs>
			<rect id="SVGID_101_" x="80" y="114.2" width="286.1" height="190.8"/>
		</defs>
		<clipPath id="SVGID_102_">
			<use xlink:href="#SVGID_101_"  style="overflow:visible;"/>
		</clipPath>
		<path class="st54" d="M101.1,217.6h3.3v0.7h-2.6v1.5c0.1,0,0.3-0.1,0.4-0.1c0.1,0,0.3,0,0.4,0c0.7,0,1.3,0.2,1.7,0.6
			c0.4,0.4,0.6,0.9,0.6,1.6c0,0.7-0.2,1.2-0.6,1.6s-1,0.6-1.8,0.6c-0.3,0-0.5,0-0.8-0.1c-0.3,0-0.5-0.1-0.8-0.2v-0.9
			c0.3,0.1,0.5,0.2,0.8,0.3c0.3,0.1,0.5,0.1,0.8,0.1c0.5,0,0.9-0.1,1.2-0.4c0.3-0.3,0.4-0.6,0.4-1c0-0.4-0.2-0.8-0.4-1
			c-0.3-0.3-0.7-0.4-1.2-0.4c-0.2,0-0.5,0-0.7,0.1s-0.5,0.1-0.7,0.2L101.1,217.6L101.1,217.6z"/>
	</g>
	<g>
		<defs>
			<rect id="SVGID_103_" x="80" y="114.2" width="286.1" height="190.8"/>
		</defs>
		<clipPath id="SVGID_104_">
			<use xlink:href="#SVGID_103_"  style="overflow:visible;"/>
		</clipPath>
		<path class="st55" d="M108.3,217.5c0.7,0,1.2,0.3,1.6,0.8c0.4,0.6,0.6,1.4,0.6,2.4c0,1.1-0.2,1.9-0.6,2.4
			c-0.4,0.6-0.9,0.8-1.6,0.8s-1.2-0.3-1.6-0.8c-0.4-0.6-0.6-1.4-0.6-2.4c0-1.1,0.2-1.9,0.6-2.4C107.1,217.8,107.6,217.5,108.3,217.5
			z M108.3,218.2c-0.4,0-0.8,0.2-1,0.6s-0.3,1.1-0.3,1.9s0.1,1.5,0.3,1.9c0.2,0.4,0.5,0.6,1,0.6s0.8-0.2,1-0.6s0.3-1.1,0.3-1.9
			s-0.1-1.5-0.3-1.9C109.1,218.4,108.8,218.2,108.3,218.2z"/>
	</g>
	<g>
		<defs>
			<rect id="SVGID_105_" x="80" y="114.2" width="286.1" height="190.8"/>
		</defs>
		<clipPath id="SVGID_106_">
			<use xlink:href="#SVGID_105_"  style="overflow:visible;"/>
		</clipPath>
		<line class="st56" x1="115.7" y1="202.1" x2="113.4" y2="202.1"/>
	</g>
	<g>
		<defs>
			<rect id="SVGID_107_" x="80" y="114.2" width="286.1" height="190.8"/>
		</defs>
		<clipPath id="SVGID_108_">
			<use xlink:href="#SVGID_107_"  style="overflow:visible;"/>
		</clipPath>
		<line class="st57" x1="115.7" y1="202.1" x2="113.4" y2="202.1"/>
	</g>
	<g>
		<defs>
			<rect id="SVGID_109_" x="80" y="114.2" width="286.1" height="190.8"/>
		</defs>
		<clipPath id="SVGID_110_">
			<use xlink:href="#SVGID_109_"  style="overflow:visible;"/>
		</clipPath>
		<path class="st58" d="M89.2,199c0.7,0,1.2,0.3,1.6,0.8c0.4,0.6,0.6,1.4,0.6,2.4c0,1.1-0.2,1.9-0.6,2.4c-0.4,0.6-0.9,0.8-1.6,0.8
			c-0.7,0-1.2-0.3-1.6-0.8c-0.4-0.6-0.5-1.4-0.5-2.4c0-1.1,0.2-1.9,0.5-2.4C87.9,199.3,88.5,199,89.2,199z M89.2,199.7
			c-0.4,0-0.8,0.2-1,0.6s-0.3,1.1-0.3,1.9s0.1,1.5,0.3,1.9c0.2,0.4,0.5,0.6,1,0.6s0.8-0.2,1-0.6c0.2-0.4,0.3-1.1,0.3-1.9
			s-0.1-1.5-0.3-1.9C89.9,199.9,89.6,199.7,89.2,199.7z"/>
	</g>
	<g>
		<defs>
			<rect id="SVGID_111_" x="80" y="114.2" width="286.1" height="190.8"/>
		</defs>
		<clipPath id="SVGID_112_">
			<use xlink:href="#SVGID_111_"  style="overflow:visible;"/>
		</clipPath>
		<rect x="92.8" y="204.3" class="st59" width="0.9" height="1.1"/>
	</g>
	<g>
		<defs>
			<rect id="SVGID_113_" x="80" y="114.2" width="286.1" height="190.8"/>
		</defs>
		<clipPath id="SVGID_114_">
			<use xlink:href="#SVGID_113_"  style="overflow:visible;"/>
		</clipPath>
		<path class="st60" d="M96.3,204.7h3v0.7h-4v-0.7c0.3-0.3,0.8-0.8,1.3-1.3c0.5-0.6,0.9-0.9,1-1.1c0.3-0.3,0.5-0.6,0.6-0.8
			c0.1-0.2,0.2-0.4,0.2-0.6c0-0.3-0.1-0.6-0.3-0.8c-0.2-0.2-0.5-0.3-0.9-0.3c-0.3,0-0.5,0.1-0.8,0.1s-0.6,0.2-1,0.4v-0.9
			c0.3-0.1,0.7-0.2,1-0.3c0.3-0.1,0.6-0.1,0.8-0.1c0.7,0,1.2,0.2,1.6,0.5s0.6,0.8,0.6,1.3c0,0.3,0,0.5-0.2,0.7
			c-0.1,0.2-0.3,0.5-0.5,0.8c-0.1,0.1-0.3,0.3-0.7,0.7C97.5,203.5,97,204,96.3,204.7z"/>
	</g>
	<g>
		<defs>
			<rect id="SVGID_115_" x="80" y="114.2" width="286.1" height="190.8"/>
		</defs>
		<clipPath id="SVGID_116_">
			<use xlink:href="#SVGID_115_"  style="overflow:visible;"/>
		</clipPath>
		<polygon class="st61" points="100.8,199.1 104.9,199.1 104.9,199.5 102.6,205.4 101.7,205.4 103.9,199.9 100.8,199.9 		"/>
	</g>
	<g>
		<defs>
			<rect id="SVGID_117_" x="80" y="114.2" width="286.1" height="190.8"/>
		</defs>
		<clipPath id="SVGID_118_">
			<use xlink:href="#SVGID_117_"  style="overflow:visible;"/>
		</clipPath>
		<path class="st62" d="M106.5,199.1h3.3v0.7h-2.6v1.5c0.1,0,0.3-0.1,0.4-0.1c0.1,0,0.3,0,0.4,0c0.7,0,1.3,0.2,1.7,0.6
			c0.4,0.4,0.6,0.9,0.6,1.6c0,0.7-0.2,1.2-0.6,1.6s-1,0.6-1.8,0.6c-0.3,0-0.5,0-0.8-0.1c-0.3,0-0.6-0.1-0.8-0.2v-0.9
			c0.3,0.1,0.5,0.2,0.8,0.3c0.3,0.1,0.6,0.1,0.8,0.1c0.5,0,0.9-0.1,1.2-0.4c0.3-0.3,0.4-0.6,0.4-1c0-0.4-0.2-0.8-0.4-1
			c-0.3-0.3-0.7-0.4-1.2-0.4c-0.2,0-0.5,0-0.7,0.1s-0.5,0.1-0.7,0.2L106.5,199.1L106.5,199.1z"/>
	</g>
	<g>
		<defs>
			<rect id="SVGID_119_" x="80" y="114.2" width="286.1" height="190.8"/>
		</defs>
		<clipPath id="SVGID_120_">
			<use xlink:href="#SVGID_119_"  style="overflow:visible;"/>
		</clipPath>
		<line class="st63" x1="115.7" y1="183.7" x2="113.4" y2="183.7"/>
	</g>
	<g>
		<defs>
			<rect id="SVGID_121_" x="80" y="114.2" width="286.1" height="190.8"/>
		</defs>
		<clipPath id="SVGID_122_">
			<use xlink:href="#SVGID_121_"  style="overflow:visible;"/>
		</clipPath>
		<line class="st64" x1="115.7" y1="183.7" x2="113.4" y2="183.7"/>
	</g>
	<g>
		<defs>
			<rect id="SVGID_123_" x="80" y="114.2" width="286.1" height="190.8"/>
		</defs>
		<clipPath id="SVGID_124_">
			<use xlink:href="#SVGID_123_"  style="overflow:visible;"/>
		</clipPath>
		<path class="st65" d="M89.2,180.6c0.7,0,1.2,0.3,1.6,0.8c0.4,0.6,0.6,1.4,0.6,2.4c0,1.1-0.2,1.9-0.6,2.4c-0.4,0.6-0.9,0.8-1.6,0.8
			c-0.7,0-1.2-0.3-1.6-0.8c-0.4-0.6-0.5-1.4-0.5-2.4c0-1.1,0.2-1.9,0.5-2.4C87.9,180.8,88.5,180.6,89.2,180.6z M89.2,181.2
			c-0.4,0-0.8,0.2-1,0.6s-0.3,1.1-0.3,1.9s0.1,1.5,0.3,1.9c0.2,0.4,0.5,0.6,1,0.6s0.8-0.2,1-0.6c0.2-0.4,0.3-1.1,0.3-1.9
			s-0.1-1.5-0.3-1.9C89.9,181.4,89.6,181.2,89.2,181.2z"/>
	</g>
	<g>
		<defs>
			<rect id="SVGID_125_" x="80" y="114.2" width="286.1" height="190.8"/>
		</defs>
		<clipPath id="SVGID_126_">
			<use xlink:href="#SVGID_125_"  style="overflow:visible;"/>
		</clipPath>
		<rect x="92.8" y="185.9" class="st66" width="0.9" height="1.1"/>
	</g>
	<g>
		<defs>
			<rect id="SVGID_127_" x="80" y="114.2" width="286.1" height="190.8"/>
		</defs>
		<clipPath id="SVGID_128_">
			<use xlink:href="#SVGID_127_"  style="overflow:visible;"/>
		</clipPath>
		<path class="st67" d="M98.2,183.6c0.4,0.1,0.7,0.3,1,0.5c0.2,0.3,0.3,0.6,0.3,1c0,0.6-0.2,1.1-0.6,1.4c-0.4,0.3-1,0.5-1.8,0.5
			c-0.3,0-0.5,0-0.8-0.1c-0.3,0-0.6-0.1-0.9-0.2v-0.8c0.2,0.1,0.5,0.2,0.8,0.3c0.3,0.1,0.6,0.1,0.9,0.1c0.5,0,0.9-0.1,1.2-0.3
			c0.3-0.2,0.4-0.5,0.4-0.9c0-0.4-0.1-0.6-0.4-0.9c-0.3-0.2-0.6-0.3-1.1-0.3h-0.7v-0.7h0.8c0.4,0,0.7-0.1,1-0.3
			c0.2-0.2,0.3-0.4,0.3-0.7s-0.1-0.6-0.3-0.7c-0.2-0.2-0.6-0.3-1-0.3c-0.2,0-0.5,0-0.8,0.1c-0.3,0.1-0.6,0.1-0.9,0.2v-0.8
			c0.3-0.1,0.6-0.1,0.9-0.2c0.3,0,0.5-0.1,0.8-0.1c0.6,0,1.2,0.1,1.5,0.4c0.4,0.3,0.6,0.7,0.6,1.2c0,0.3-0.1,0.6-0.3,0.9
			C98.8,183.3,98.5,183.5,98.2,183.6z"/>
	</g>
	<g>
		<defs>
			<rect id="SVGID_129_" x="80" y="114.2" width="286.1" height="190.8"/>
		</defs>
		<clipPath id="SVGID_130_">
			<use xlink:href="#SVGID_129_"  style="overflow:visible;"/>
		</clipPath>
		<path class="st68" d="M102.9,180.6c0.7,0,1.2,0.3,1.6,0.8c0.4,0.6,0.6,1.4,0.6,2.4c0,1.1-0.2,1.9-0.6,2.4
			c-0.4,0.6-0.9,0.8-1.6,0.8s-1.2-0.3-1.6-0.8c-0.4-0.6-0.5-1.4-0.5-2.4c0-1.1,0.2-1.9,0.5-2.4C101.6,180.8,102.2,180.6,102.9,180.6
			z M102.9,181.2c-0.4,0-0.8,0.2-1,0.6s-0.3,1.1-0.3,1.9s0.1,1.5,0.3,1.9c0.2,0.4,0.6,0.6,1,0.6c0.4,0,0.8-0.2,1-0.6
			s0.3-1.1,0.3-1.9s-0.1-1.5-0.3-1.9C103.6,181.4,103.3,181.2,102.9,181.2z"/>
	</g>
	<g>
		<defs>
			<rect id="SVGID_131_" x="80" y="114.2" width="286.1" height="190.8"/>
		</defs>
		<clipPath id="SVGID_132_">
			<use xlink:href="#SVGID_131_"  style="overflow:visible;"/>
		</clipPath>
		<path class="st69" d="M108.3,180.6c0.7,0,1.2,0.3,1.6,0.8c0.4,0.6,0.6,1.4,0.6,2.4c0,1.1-0.2,1.9-0.6,2.4
			c-0.4,0.6-0.9,0.8-1.6,0.8s-1.2-0.3-1.6-0.8c-0.4-0.6-0.6-1.4-0.6-2.4c0-1.1,0.2-1.9,0.6-2.4C107.1,180.8,107.6,180.6,108.3,180.6
			z M108.3,181.2c-0.4,0-0.8,0.2-1,0.6s-0.3,1.1-0.3,1.9s0.1,1.5,0.3,1.9c0.2,0.4,0.5,0.6,1,0.6s0.8-0.2,1-0.6s0.3-1.1,0.3-1.9
			s-0.1-1.5-0.3-1.9C109.1,181.4,108.8,181.2,108.3,181.2z"/>
	</g>
	<g>
		<defs>
			<rect id="SVGID_133_" x="80" y="114.2" width="286.1" height="190.8"/>
		</defs>
		<clipPath id="SVGID_134_">
			<use xlink:href="#SVGID_133_"  style="overflow:visible;"/>
		</clipPath>
		<line class="st70" x1="115.7" y1="165.2" x2="113.4" y2="165.2"/>
	</g>
	<g>
		<defs>
			<rect id="SVGID_135_" x="80" y="114.2" width="286.1" height="190.8"/>
		</defs>
		<clipPath id="SVGID_136_">
			<use xlink:href="#SVGID_135_"  style="overflow:visible;"/>
		</clipPath>
		<line class="st71" x1="115.7" y1="165.2" x2="113.4" y2="165.2"/>
	</g>
	<g>
		<defs>
			<rect id="SVGID_137_" x="80" y="114.2" width="286.1" height="190.8"/>
		</defs>
		<clipPath id="SVGID_138_">
			<use xlink:href="#SVGID_137_"  style="overflow:visible;"/>
		</clipPath>
		<path class="st72" d="M89.2,162.1c0.7,0,1.2,0.3,1.6,0.8c0.4,0.6,0.6,1.4,0.6,2.4c0,1.1-0.2,1.9-0.6,2.4c-0.4,0.6-0.9,0.8-1.6,0.8
			c-0.7,0-1.2-0.3-1.6-0.8c-0.4-0.6-0.5-1.4-0.5-2.4c0-1.1,0.2-1.9,0.5-2.4C87.9,162.4,88.5,162.1,89.2,162.1z M89.2,162.8
			c-0.4,0-0.8,0.2-1,0.6s-0.3,1.1-0.3,1.9s0.1,1.5,0.3,1.9c0.2,0.4,0.5,0.6,1,0.6s0.8-0.2,1-0.6c0.2-0.4,0.3-1.1,0.3-1.9
			s-0.1-1.5-0.3-1.9C89.9,163,89.6,162.8,89.2,162.8z"/>
	</g>
	<g>
		<defs>
			<rect id="SVGID_139_" x="80" y="114.2" width="286.1" height="190.8"/>
		</defs>
		<clipPath id="SVGID_140_">
			<use xlink:href="#SVGID_139_"  style="overflow:visible;"/>
		</clipPath>
		<rect x="92.8" y="167.4" class="st73" width="0.9" height="1.1"/>
	</g>
	<g>
		<defs>
			<rect id="SVGID_141_" x="80" y="114.2" width="286.1" height="190.8"/>
		</defs>
		<clipPath id="SVGID_142_">
			<use xlink:href="#SVGID_141_"  style="overflow:visible;"/>
		</clipPath>
		<path class="st74" d="M98.2,165.1c0.4,0.1,0.7,0.3,1,0.5c0.2,0.3,0.3,0.6,0.3,1c0,0.6-0.2,1.1-0.6,1.4c-0.4,0.3-1,0.5-1.8,0.5
			c-0.3,0-0.5,0-0.8-0.1c-0.3,0-0.6-0.1-0.9-0.2v-0.8c0.2,0.1,0.5,0.2,0.8,0.3c0.3,0.1,0.6,0.1,0.9,0.1c0.5,0,0.9-0.1,1.2-0.3
			c0.3-0.2,0.4-0.5,0.4-0.9c0-0.4-0.1-0.6-0.4-0.9c-0.3-0.2-0.6-0.3-1.1-0.3h-0.7v-0.7h0.8c0.4,0,0.7-0.1,1-0.3
			c0.2-0.2,0.3-0.4,0.3-0.7s-0.1-0.6-0.3-0.7c-0.2-0.2-0.6-0.3-1-0.3c-0.2,0-0.5,0-0.8,0.1c-0.3,0.1-0.6,0.1-0.9,0.2v-0.8
			c0.3-0.1,0.6-0.1,0.9-0.2c0.3,0,0.5-0.1,0.8-0.1c0.6,0,1.2,0.1,1.5,0.4c0.4,0.3,0.6,0.7,0.6,1.2c0,0.3-0.1,0.6-0.3,0.9
			S98.5,165,98.2,165.1z"/>
	</g>
	<g>
		<defs>
			<rect id="SVGID_143_" x="80" y="114.2" width="286.1" height="190.8"/>
		</defs>
		<clipPath id="SVGID_144_">
			<use xlink:href="#SVGID_143_"  style="overflow:visible;"/>
		</clipPath>
		<path class="st75" d="M101.8,167.8h3v0.7h-4v-0.7c0.3-0.3,0.8-0.8,1.3-1.3c0.6-0.6,0.9-0.9,1.1-1.1c0.3-0.3,0.5-0.6,0.6-0.8
			c0.1-0.2,0.2-0.4,0.2-0.6c0-0.3-0.1-0.6-0.3-0.8c-0.2-0.2-0.5-0.3-0.9-0.3c-0.3,0-0.6,0.1-0.8,0.1s-0.6,0.2-0.9,0.4v-0.9
			c0.3-0.1,0.7-0.2,1-0.3c0.3-0.1,0.6-0.1,0.8-0.1c0.7,0,1.2,0.2,1.5,0.5s0.6,0.8,0.6,1.3c0,0.3-0.1,0.5-0.2,0.7
			c-0.1,0.2-0.3,0.5-0.5,0.8c-0.1,0.1-0.3,0.3-0.7,0.7C103,166.5,102.5,167.1,101.8,167.8z"/>
	</g>
	<g>
		<defs>
			<rect id="SVGID_145_" x="80" y="114.2" width="286.1" height="190.8"/>
		</defs>
		<clipPath id="SVGID_146_">
			<use xlink:href="#SVGID_145_"  style="overflow:visible;"/>
		</clipPath>
		<path class="st76" d="M106.5,162.2h3.3v0.7h-2.6v1.5c0.1,0,0.3-0.1,0.4-0.1c0.1,0,0.3,0,0.4,0c0.7,0,1.3,0.2,1.7,0.6
			c0.4,0.4,0.6,0.9,0.6,1.6c0,0.7-0.2,1.2-0.6,1.6s-1,0.6-1.8,0.6c-0.3,0-0.5,0-0.8-0.1c-0.3,0-0.6-0.1-0.8-0.2v-0.9
			c0.3,0.1,0.5,0.2,0.8,0.3c0.3,0.1,0.6,0.1,0.8,0.1c0.5,0,0.9-0.1,1.2-0.4c0.3-0.3,0.4-0.6,0.4-1c0-0.4-0.2-0.8-0.4-1
			c-0.3-0.3-0.7-0.4-1.2-0.4c-0.2,0-0.5,0-0.7,0.1s-0.5,0.1-0.7,0.2L106.5,162.2L106.5,162.2z"/>
	</g>
	<g>
		<defs>
			<rect id="SVGID_147_" x="80" y="114.2" width="286.1" height="190.8"/>
		</defs>
		<clipPath id="SVGID_148_">
			<use xlink:href="#SVGID_147_"  style="overflow:visible;"/>
		</clipPath>
		<line class="st77" x1="115.7" y1="146.7" x2="113.4" y2="146.7"/>
	</g>
	<g>
		<defs>
			<rect id="SVGID_149_" x="80" y="114.2" width="286.1" height="190.8"/>
		</defs>
		<clipPath id="SVGID_150_">
			<use xlink:href="#SVGID_149_"  style="overflow:visible;"/>
		</clipPath>
		<line class="st78" x1="115.7" y1="146.7" x2="113.4" y2="146.7"/>
	</g>
	<g>
		<defs>
			<rect id="SVGID_151_" x="80" y="114.2" width="286.1" height="190.8"/>
		</defs>
		<clipPath id="SVGID_152_">
			<use xlink:href="#SVGID_151_"  style="overflow:visible;"/>
		</clipPath>
		<path class="st79" d="M89.2,143.6c0.7,0,1.2,0.3,1.6,0.8c0.4,0.6,0.6,1.4,0.6,2.4c0,1.1-0.2,1.9-0.6,2.4c-0.4,0.6-0.9,0.8-1.6,0.8
			c-0.7,0-1.2-0.3-1.6-0.8c-0.4-0.6-0.5-1.4-0.5-2.4c0-1.1,0.2-1.9,0.5-2.4C87.9,143.9,88.5,143.6,89.2,143.6z M89.2,144.3
			c-0.4,0-0.8,0.2-1,0.6s-0.3,1.1-0.3,1.9s0.1,1.5,0.3,1.9c0.2,0.4,0.5,0.6,1,0.6s0.8-0.2,1-0.6c0.2-0.4,0.3-1.1,0.3-1.9
			s-0.1-1.5-0.3-1.9C89.9,144.5,89.6,144.3,89.2,144.3z"/>
	</g>
	<g>
		<defs>
			<rect id="SVGID_153_" x="80" y="114.2" width="286.1" height="190.8"/>
		</defs>
		<clipPath id="SVGID_154_">
			<use xlink:href="#SVGID_153_"  style="overflow:visible;"/>
		</clipPath>
		<rect x="92.8" y="148.9" class="st80" width="0.9" height="1.1"/>
	</g>
	<g>
		<defs>
			<rect id="SVGID_155_" x="80" y="114.2" width="286.1" height="190.8"/>
		</defs>
		<clipPath id="SVGID_156_">
			<use xlink:href="#SVGID_155_"  style="overflow:visible;"/>
		</clipPath>
		<path class="st81" d="M98.2,146.6c0.4,0.1,0.7,0.3,1,0.5c0.2,0.3,0.3,0.6,0.3,1c0,0.6-0.2,1.1-0.6,1.4c-0.4,0.3-1,0.5-1.8,0.5
			c-0.3,0-0.5,0-0.8-0.1c-0.3,0-0.6-0.1-0.9-0.2V149c0.2,0.1,0.5,0.2,0.8,0.3c0.3,0.1,0.6,0.1,0.9,0.1c0.5,0,0.9-0.1,1.2-0.3
			c0.3-0.2,0.4-0.5,0.4-0.9c0-0.4-0.1-0.6-0.4-0.9c-0.3-0.2-0.6-0.3-1.1-0.3h-0.7v-0.7h0.8c0.4,0,0.7-0.1,1-0.3
			c0.2-0.2,0.3-0.4,0.3-0.7s-0.1-0.6-0.3-0.7c-0.2-0.2-0.6-0.3-1-0.3c-0.2,0-0.5,0-0.8,0.1c-0.3,0.1-0.6,0.1-0.9,0.2v-0.8
			c0.3-0.1,0.6-0.1,0.9-0.2c0.3,0,0.5-0.1,0.8-0.1c0.6,0,1.2,0.1,1.5,0.4c0.4,0.3,0.6,0.7,0.6,1.2c0,0.3-0.1,0.6-0.3,0.9
			C98.8,146.4,98.5,146.5,98.2,146.6z"/>
	</g>
	<g>
		<defs>
			<rect id="SVGID_157_" x="80" y="114.2" width="286.1" height="190.8"/>
		</defs>
		<clipPath id="SVGID_158_">
			<use xlink:href="#SVGID_157_"  style="overflow:visible;"/>
		</clipPath>
		<path class="st82" d="M101.1,143.7h3.3v0.7h-2.6v1.5c0.1,0,0.3-0.1,0.4-0.1c0.1,0,0.3,0,0.4,0c0.7,0,1.3,0.2,1.7,0.6
			c0.4,0.4,0.6,0.9,0.6,1.6c0,0.7-0.2,1.2-0.6,1.6s-1,0.6-1.8,0.6c-0.3,0-0.5,0-0.8-0.1c-0.3,0-0.5-0.1-0.8-0.2V149
			c0.3,0.1,0.5,0.2,0.8,0.3c0.3,0.1,0.5,0.1,0.8,0.1c0.5,0,0.9-0.1,1.2-0.4c0.3-0.3,0.4-0.6,0.4-1c0-0.4-0.2-0.8-0.4-1
			c-0.3-0.3-0.7-0.4-1.2-0.4c-0.2,0-0.5,0-0.7,0.1s-0.5,0.1-0.7,0.2L101.1,143.7L101.1,143.7z"/>
	</g>
	<g>
		<defs>
			<rect id="SVGID_159_" x="80" y="114.2" width="286.1" height="190.8"/>
		</defs>
		<clipPath id="SVGID_160_">
			<use xlink:href="#SVGID_159_"  style="overflow:visible;"/>
		</clipPath>
		<path class="st83" d="M108.3,143.6c0.7,0,1.2,0.3,1.6,0.8c0.4,0.6,0.6,1.4,0.6,2.4c0,1.1-0.2,1.9-0.6,2.4
			c-0.4,0.6-0.9,0.8-1.6,0.8s-1.2-0.3-1.6-0.8c-0.4-0.6-0.6-1.4-0.6-2.4c0-1.1,0.2-1.9,0.6-2.4C107.1,143.9,107.6,143.6,108.3,143.6
			z M108.3,144.3c-0.4,0-0.8,0.2-1,0.6s-0.3,1.1-0.3,1.9s0.1,1.5,0.3,1.9c0.2,0.4,0.5,0.6,1,0.6s0.8-0.2,1-0.6s0.3-1.1,0.3-1.9
			s-0.1-1.5-0.3-1.9C109.1,144.5,108.8,144.3,108.3,144.3z"/>
	</g>
	<g>
		<defs>
			<rect id="SVGID_161_" x="80" y="114.2" width="286.1" height="190.8"/>
		</defs>
		<clipPath id="SVGID_162_">
			<use xlink:href="#SVGID_161_"  style="overflow:visible;"/>
		</clipPath>
		<g class="st84">
			<g>
				<defs>
					<rect id="SVGID_163_" x="115.7" y="137.1" width="221.8" height="144"/>
				</defs>
				<clipPath id="SVGID_164_">
					<use xlink:href="#SVGID_163_"  style="overflow:visible;"/>
				</clipPath>
				<polyline class="st85" points="125.8,198.2 128.1,198.2 130.4,198.2 132.7,198 135.1,198 137.4,191.5 139.7,191.5 142,187.8 
					144.3,187.8 146.7,183.7 149,183.7 151.3,183.7 153.6,183.7 155.9,183.7 158.2,183.7 160.6,177.1 162.9,177.1 165.2,177.1 
					167.5,164.8 169.8,164.8 172.1,164.8 174.5,164.8 176.8,164.8 179.1,164.8 181.4,164.8 183.7,164.8 186,164.8 188.4,164.8 
					190.7,164.8 193,164.8 195.3,160.9 197.6,160.9 199.9,160.9 202.3,160.3 204.6,160.3 206.9,160.3 209.2,160.3 211.5,159.7 
					213.8,159.7 216.2,159.7 218.5,159.7 220.8,159.1 223.1,159.1 225.4,158.4 227.8,158.4 230.1,158.3 232.4,158.3 234.7,158.3 
					237,157.4 239.3,157.4 241.7,157.4 244,157.4 246.3,157.4 248.6,157.4 250.9,157.4 253.2,157.4 255.6,157.4 257.9,157.4 
					260.2,157.4 262.5,157.4 264.8,157.4 267.1,157.4 269.5,157.4 271.8,157.4 274.1,157.4 276.4,157.4 278.7,157.4 281,157.4 				
					"/>
			</g>
		</g>
	</g>
	<g>
		<defs>
			<rect id="SVGID_165_" x="80" y="114.2" width="286.1" height="190.8"/>
		</defs>
		<clipPath id="SVGID_166_">
			<use xlink:href="#SVGID_165_"  style="overflow:visible;"/>
		</clipPath>
		<g class="st86">
			<g>
				<defs>
					<rect id="SVGID_167_" x="115.7" y="137.1" width="221.8" height="144"/>
				</defs>
				<clipPath id="SVGID_168_">
					<use xlink:href="#SVGID_167_"  style="overflow:visible;"/>
				</clipPath>
				<polyline class="st87" points="125.8,225.6 128.1,225.6 130.4,224.9 132.7,224.8 135.1,219.9 137.4,216.7 139.7,216.7 
					142,214.8 144.3,214.8 146.7,192.5 149,190.9 151.3,190.9 153.6,190.9 155.9,190.9 158.2,189.9 160.6,185.7 162.9,184.9 
					165.2,184.9 167.5,178 169.8,176.8 172.1,176.8 174.5,174.9 176.8,174.9 179.1,174.9 181.4,170.7 183.7,170.7 186,170.4 
					188.4,170.4 190.7,170.2 193,170.1 195.3,166.6 197.6,166.3 199.9,166.1 202.3,165.8 204.6,165.2 206.9,165.2 209.2,165.2 
					211.5,165 213.8,165 216.2,165 218.5,164.4 220.8,163.9 223.1,163.9 225.4,163.5 227.8,163.5 230.1,163.5 232.4,163.4 
					234.7,163.4 237,162.4 239.3,162.4 241.7,162.4 244,162.4 246.3,162.4 248.6,159.7 250.9,159.7 253.2,159.7 255.6,159.6 
					257.9,159.6 260.2,159.6 262.5,159.6 264.8,159.6 267.1,159.6 269.5,159.6 271.8,158.9 274.1,158.9 276.4,158.9 278.7,158.9 
					281,158.9 				"/>
			</g>
		</g>
	</g>
	<g>
		<defs>
			<rect id="SVGID_169_" x="80" y="114.2" width="286.1" height="190.8"/>
		</defs>
		<clipPath id="SVGID_170_">
			<use xlink:href="#SVGID_169_"  style="overflow:visible;"/>
		</clipPath>
		<g class="st88">
			<g>
				<defs>
					<rect id="SVGID_171_" x="115.7" y="137.1" width="221.8" height="144"/>
				</defs>
				<clipPath id="SVGID_172_">
					<use xlink:href="#SVGID_171_"  style="overflow:visible;"/>
				</clipPath>
				<polyline class="st89" points="125.8,197.4 128.1,197.4 130.4,197.4 132.7,194.7 135.1,194.7 137.4,189.9 139.7,188.5 
					142,186.6 144.3,185.7 146.7,182 149,182 151.3,180.4 153.6,180.4 155.9,180.4 158.2,180.4 160.6,168.6 162.9,168.1 
					165.2,168.1 167.5,161.9 169.8,161.9 172.1,161.9 174.5,161.9 176.8,161.8 179.1,161.7 181.4,161.7 183.7,161.7 186,161.6 
					188.4,161.6 190.7,161.6 193,161.4 195.3,159.1 197.6,159.1 199.9,158.4 202.3,158.1 204.6,158.1 206.9,158.1 209.2,158.1 
					211.5,157.8 213.8,157.8 216.2,157.8 218.5,157.8 220.8,157.5 223.1,157.5 225.4,157.1 227.8,157.1 230.1,157 232.4,157 
					234.7,157 237,156.5 239.3,156.5 241.7,156.1 244,156.1 246.3,156.1 248.6,156.1 250.9,156 253.2,156 255.6,156 257.9,156 
					260.2,156 262.5,156 264.8,156 267.1,156 269.5,156 271.8,156 274.1,156 276.4,156 278.7,156 281,156 				"/>
			</g>
		</g>
	</g>
	<g>
		<defs>
			<rect id="SVGID_173_" x="80" y="114.2" width="286.1" height="190.8"/>
		</defs>
		<clipPath id="SVGID_174_">
			<use xlink:href="#SVGID_173_"  style="overflow:visible;"/>
		</clipPath>
		<g class="st90">
			<g>
				<defs>
					<rect id="SVGID_175_" x="115.7" y="137.1" width="221.8" height="144"/>
				</defs>
				<clipPath id="SVGID_176_">
					<use xlink:href="#SVGID_175_"  style="overflow:visible;"/>
				</clipPath>
				<polyline class="st91" points="125.8,274.2 128.1,255.7 130.4,245.8 132.7,241.5 135.1,241.5 137.4,241.5 139.7,236.4 
					142,236.1 144.3,236.1 146.7,236.1 149,236.1 151.3,236 153.6,236 155.9,224.3 158.2,222.2 160.6,222.2 162.9,222.2 
					165.2,222.2 167.5,222.2 169.8,222.2 172.1,222.2 174.5,218 176.8,218 179.1,200.7 181.4,199.6 183.7,199.6 186,199.6 
					188.4,199.6 190.7,199.6 193,199.6 195.3,197 197.6,182.9 199.9,182.9 202.3,182.8 204.6,182.1 206.9,182.1 209.2,182.1 
					211.5,182.1 213.8,181.9 216.2,181.9 218.5,180.2 220.8,180.2 223.1,180.2 225.4,179.9 227.8,179.9 230.1,170.6 232.4,168.9 
					234.7,168.9 237,168.9 239.3,168.9 241.7,168.9 244,168.9 246.3,168.9 248.6,168.9 250.9,168.9 253.2,168.9 255.6,168.9 
					257.9,168.9 260.2,167 262.5,167 264.8,167 267.1,167 269.5,167 271.8,167 274.1,166.8 276.4,166.5 278.7,166.5 281,166.5 
					283.4,166.5 285.7,161.1 288,161.1 290.3,161.1 292.6,161.1 294.9,161.1 297.3,158.2 299.6,158 301.9,158 304.2,158 306.5,158 
					308.8,158 311.2,153.8 313.5,153.8 315.8,153.8 318.1,150.4 320.4,149.1 322.8,149 325.1,149 327.4,149 				"/>
			</g>
		</g>
	</g>
	<g>
		<defs>
			<rect id="SVGID_177_" x="80" y="114.2" width="286.1" height="190.8"/>
		</defs>
		<clipPath id="SVGID_178_">
			<use xlink:href="#SVGID_177_"  style="overflow:visible;"/>
		</clipPath>
		<g class="st92">
			<g>
				<defs>
					<rect id="SVGID_179_" x="115.7" y="137.1" width="221.8" height="144"/>
				</defs>
				<clipPath id="SVGID_180_">
					<use xlink:href="#SVGID_179_"  style="overflow:visible;"/>
				</clipPath>
				<polyline class="st93" points="125.8,274.6 128.1,261.3 130.4,250.8 132.7,248.6 135.1,242.4 137.4,241.9 139.7,237.3 
					142,236.3 144.3,236.3 146.7,236.3 149,236.3 151.3,236.1 153.6,236.1 155.9,228.4 158.2,227.4 160.6,226 162.9,225.5 
					165.2,225.5 167.5,225.5 169.8,225.5 172.1,225.5 174.5,218.3 176.8,218.3 179.1,209.3 181.4,208.8 183.7,208.6 186,207.9 
					188.4,207.6 190.7,201.6 193,201.6 195.3,200.4 197.6,193.2 199.9,192.5 202.3,192.4 204.6,192.1 206.9,192.1 209.2,192.1 
					211.5,192.1 213.8,192 216.2,192 218.5,190.6 220.8,190.6 223.1,190.6 225.4,189.4 227.8,188.4 230.1,183.7 232.4,182.9 
					234.7,182.9 237,182.9 239.3,182.9 241.7,182.7 244,182.7 246.3,182.7 248.6,175.6 250.9,175.6 253.2,175.6 255.6,175.6 
					257.9,175.6 260.2,174.4 262.5,174.4 264.8,174.4 267.1,174.4 269.5,174.4 271.8,173.9 274.1,173.7 276.4,173.2 278.7,173 
					281,173 283.4,173 285.7,170.3 288,170.1 290.3,169.6 292.6,169.6 294.9,167.5 297.3,166.1 299.6,166 301.9,166 304.2,166 
					306.5,163.4 308.8,163.4 311.2,161.3 313.5,161.3 315.8,161.3 318.1,159.6 320.4,158.9 322.8,158.9 325.1,158.9 327.4,158.9 
									"/>
			</g>
		</g>
	</g>
	<g>
		<defs>
			<rect id="SVGID_181_" x="80" y="114.2" width="286.1" height="190.8"/>
		</defs>
		<clipPath id="SVGID_182_">
			<use xlink:href="#SVGID_181_"  style="overflow:visible;"/>
		</clipPath>
		<g class="st94">
			<g>
				<defs>
					<rect id="SVGID_183_" x="115.7" y="137.1" width="221.8" height="144"/>
				</defs>
				<clipPath id="SVGID_184_">
					<use xlink:href="#SVGID_183_"  style="overflow:visible;"/>
				</clipPath>
				<polyline class="st95" points="125.8,270.6 128.1,248.6 130.4,243.6 132.7,239.8 135.1,239.8 137.4,239.8 139.7,236.3 
					142,235.9 144.3,230.2 146.7,230.2 149,230.2 151.3,229.4 153.6,229.4 155.9,223 158.2,218.8 160.6,218.8 162.9,218.8 
					165.2,206.1 167.5,206.1 169.8,206.1 172.1,206.1 174.5,204 176.8,203.8 179.1,195.1 181.4,194.6 183.7,194.6 186,191 
					188.4,191 190.7,191 193,189 195.3,187.7 197.6,180.6 199.9,180.6 202.3,180.6 204.6,180.2 206.9,180.2 209.2,180.2 
					211.5,180.2 213.8,180.1 216.2,180.1 218.5,179.1 220.8,175.4 223.1,175.4 225.4,175.3 227.8,175.3 230.1,169.7 232.4,168 
					234.7,168 237,168 239.3,168 241.7,168 244,168 246.3,168 248.6,168 250.9,168 253.2,168 255.6,168 257.9,168 260.2,166.3 
					262.5,166.3 264.8,166.3 267.1,166.3 269.5,166.3 271.8,166 274.1,165.9 276.4,165.8 278.7,165.1 281,163.8 283.4,163.8 
					285.7,159.7 288,159.7 290.3,159.7 292.6,159.7 294.9,159.7 297.3,154.3 299.6,154.2 301.9,154.2 304.2,154.2 306.5,154.2 
					308.8,154.2 311.2,152.1 313.5,152.1 315.8,152.1 318.1,144.4 320.4,143.7 322.8,143.7 325.1,143.7 327.4,143.7 				"/>
			</g>
		</g>
	</g>
	<g>
		<defs>
			<rect id="SVGID_185_" x="80" y="114.2" width="286.1" height="190.8"/>
		</defs>
		<clipPath id="SVGID_186_">
			<use xlink:href="#SVGID_185_"  style="overflow:visible;"/>
		</clipPath>
		<line class="st96" x1="115.7" y1="281.1" x2="115.7" y2="137.1"/>
	</g>
	<g>
		<defs>
			<rect id="SVGID_187_" x="80" y="114.2" width="286.1" height="190.8"/>
		</defs>
		<clipPath id="SVGID_188_">
			<use xlink:href="#SVGID_187_"  style="overflow:visible;"/>
		</clipPath>
		<line class="st97" x1="337.5" y1="281.1" x2="337.5" y2="137.1"/>
	</g>
	<g>
		<defs>
			<rect id="SVGID_189_" x="80" y="114.2" width="286.1" height="190.8"/>
		</defs>
		<clipPath id="SVGID_190_">
			<use xlink:href="#SVGID_189_"  style="overflow:visible;"/>
		</clipPath>
		<line class="st98" x1="115.7" y1="281.1" x2="337.5" y2="281.1"/>
	</g>
	<g>
		<defs>
			<rect id="SVGID_191_" x="80" y="114.2" width="286.1" height="190.8"/>
		</defs>
		<clipPath id="SVGID_192_">
			<use xlink:href="#SVGID_191_"  style="overflow:visible;"/>
		</clipPath>
		<line class="st99" x1="115.7" y1="137.1" x2="337.5" y2="137.1"/>
	</g>
</g>
<g>
	<g>
		<path class="st100" d="M186.1,298.3c-0.7,0.1-0.9,0.2-0.9,0.7c0,0.4-0.1,0.8-0.1,1.8v4.4h-0.6l-4.6-5.5v2.5c0,1,0,1.4,0.1,1.7
			c0,0.5,0.3,0.7,1.1,0.8v0.4h-2.7v-0.4c0.6,0,0.9-0.2,1-0.7c0-0.4,0.1-0.8,0.1-1.8v-2.6c0-0.4,0-0.6-0.2-0.9
			c-0.2-0.3-0.5-0.3-0.9-0.4v-0.4h2.1l4.2,4.9v-2c0-1,0-1.3,0-1.7c0-0.5-0.2-0.7-1.1-0.8v-0.4h2.7L186.1,298.3L186.1,298.3z"/>
		<path class="st100" d="M192.1,304.7c-0.7,0.1-1.4,0.2-2.1,0.4c0-0.2,0-0.5,0-0.8c-0.4,0.4-0.9,0.8-1.5,0.8c-0.9,0-1.4-0.6-1.4-1.6
			v-2.3c0-0.5-0.1-0.6-0.4-0.6l-0.2-0.1v-0.4c0.6,0,1.4-0.1,2-0.2c0,0.5,0,1,0,1.7v1.6c0,0.7,0.4,1,0.8,1c0.3,0,0.6-0.1,0.8-0.3
			v-2.6c0-0.5-0.1-0.6-0.4-0.6l-0.3-0.1v-0.4c0.6,0,1.6-0.1,2.1-0.2v3.6c0,0.6,0.1,0.7,0.4,0.7l0.2,0L192.1,304.7L192.1,304.7z"/>
		<path class="st100" d="M198.7,305v-0.4c0.4-0.1,0.5-0.1,0.5-0.8v-1.9c0-0.9-0.4-1.1-0.8-1.1c-0.2,0-0.5,0.1-0.8,0.3
			c0,0.1,0,0.3,0,0.5v2.2c0,0.6,0,0.7,0.5,0.7v0.4h-2.5v-0.4c0.5-0.1,0.5-0.1,0.5-0.7v-2c0-0.8-0.3-1-0.7-1c-0.3,0-0.5,0.1-0.9,0.3
			v2.7c0,0.6,0.1,0.7,0.5,0.7v0.4h-2.5v-0.4c0.6-0.1,0.6-0.1,0.6-0.8v-2.3c0-0.6,0-0.7-0.5-0.8v-0.4c0.6-0.1,1.2-0.2,1.9-0.4
			c0,0.3,0,0.6,0,0.8c0.2-0.2,0.4-0.3,0.7-0.5c0.3-0.2,0.6-0.3,0.9-0.3c0.6,0,1,0.3,1.2,0.8c0.3-0.2,0.5-0.4,0.8-0.5
			c0.2-0.1,0.6-0.3,0.9-0.3c1,0,1.5,0.6,1.5,1.8v2.1c0,0.6,0.1,0.6,0.6,0.7v0.4L198.7,305L198.7,305z"/>
		<path class="st100" d="M204.1,300.2c0.3-0.1,0.6-0.2,0.8-0.2c1.3,0,2.2,1.1,2.2,2.3c0,1.6-1.3,2.8-2.9,2.8c-0.6,0-1.2-0.1-2-0.4
			c0-0.3,0-0.6,0-0.9v-5.1c0-0.6-0.1-0.7-0.7-0.8v-0.4c0.6-0.1,1.5-0.2,2.1-0.4c0,0.4,0,0.8,0,1.2v1.9L204.1,300.2z M203.7,303.8
			c0,0.1,0,0.3,0.1,0.4c0.1,0.2,0.4,0.5,0.8,0.5c0.6,0,1-0.6,1-2c0-1.4-0.7-2-1.4-2c-0.2,0-0.3,0-0.5,0.1V303.8z"/>
		<path class="st100" d="M212.1,303.9c-0.7,1-1.6,1.2-2,1.2c-1.5,0-2.3-1.1-2.3-2.4c0-0.8,0.4-1.5,0.8-2c0.5-0.5,1.1-0.8,1.7-0.8
			c1.1,0,1.8,0.9,1.8,1.8c0,0.2,0,0.4-0.1,0.4c-0.2,0.1-1.8,0.1-2.8,0.2c0,1.2,0.7,1.8,1.5,1.8c0.4,0,0.9-0.1,1.3-0.5L212.1,303.9z
			 M210.1,300.4c-0.4,0-0.8,0.5-0.9,1.4c0.4,0,0.9,0,1.3,0c0.1,0,0.2,0,0.2-0.2C210.8,301,210.5,300.4,210.1,300.4z"/>
		<path class="st100" d="M215.6,305h-2.9v-0.4c0.6-0.1,0.6-0.1,0.6-0.8v-2.4c0-0.5,0-0.6-0.6-0.7v-0.3c0.7-0.1,1.3-0.2,2-0.4
			c0,0.4,0,0.8,0,1.2c0.5-0.8,0.9-1.2,1.3-1.2c0.4,0,0.7,0.3,0.7,0.7c0,0.5-0.4,0.9-0.6,0.9c-0.1,0.1-0.3,0-0.3-0.1
			c-0.2-0.1-0.3-0.3-0.5-0.3c-0.2,0-0.4,0.1-0.6,0.6v2.1c0,0.7,0.1,0.7,0.9,0.8L215.6,305L215.6,305z"/>
		<path class="st100" d="M222.3,300c1.6,0,2.5,1.2,2.5,2.5c0,1.8-1.3,2.7-2.6,2.7c-1.7,0-2.6-1.3-2.6-2.5
			C219.7,300.9,221,300,222.3,300z M222.2,300.4c-0.5,0-0.9,0.5-0.9,1.9c0,1.4,0.4,2.4,1.1,2.4c0.4,0,0.9-0.3,0.9-1.9
			C223.3,301.3,222.9,300.4,222.2,300.4z"/>
		<path class="st100" d="M226.1,300.1v-0.2c0-0.8,0.4-1.5,1.1-2c0.4-0.3,0.8-0.5,1.4-0.6c0.4,0,0.8,0.1,1,0.3
			c0.1,0.1,0.1,0.3,0.1,0.5c-0.1,0.2-0.2,0.4-0.4,0.5c-0.2,0.1-0.3,0.1-0.4,0c-0.3-0.3-0.6-0.6-0.9-0.6c-0.3,0-0.3,0.3-0.3,1.7v0.5
			h1c0,0.1,0,0.5-0.1,0.5h-0.9v3.1c0,0.7,0.1,0.7,0.8,0.8v0.4h-2.9v-0.4c0.6-0.1,0.6-0.1,0.6-0.8v-3.1h-0.7l-0.1-0.1l0.3-0.4
			L226.1,300.1L226.1,300.1z"/>
		<path class="st100" d="M235.7,303.9c-0.7,1-1.6,1.2-2,1.2c-1.5,0-2.3-1.1-2.3-2.4c0-0.8,0.4-1.5,0.8-2c0.5-0.5,1.1-0.8,1.7-0.8
			c1.1,0,1.8,0.9,1.8,1.8c0,0.2,0,0.4-0.1,0.4c-0.2,0.1-1.8,0.1-2.8,0.2c0,1.2,0.7,1.8,1.5,1.8c0.4,0,0.9-0.1,1.3-0.5L235.7,303.9z
			 M233.7,300.4c-0.4,0-0.8,0.5-0.9,1.4c0.4,0,0.9,0,1.3,0c0.1,0,0.2,0,0.2-0.2C234.3,301,234.1,300.4,233.7,300.4z"/>
		<path class="st100" d="M236.2,300.4c0.6-0.1,1.3-0.3,2-0.5c0,0.2,0,0.6,0,0.8c0,0,0.7-0.4,0.8-0.5c0.3-0.2,0.5-0.2,0.7-0.2
			c1.2,0,1.9,1.1,1.9,2.2c0,1.6-1.3,2.7-2.7,3c-0.3,0-0.5,0-0.7-0.1v1.3c0,0.6,0.1,0.7,0.8,0.8v0.4h-2.9v-0.4
			c0.7-0.1,0.7-0.2,0.7-0.8v-4.9c0-0.6-0.1-0.7-0.6-0.7L236.2,300.4L236.2,300.4z M238.2,304.2c0.2,0.2,0.6,0.4,0.9,0.4
			c0.6,0,1-0.7,1-1.9c0-1.4-0.7-1.9-1.2-1.9c-0.3,0-0.5,0.1-0.7,0.2L238.2,304.2L238.2,304.2z"/>
		<path class="st100" d="M245,300c1.6,0,2.5,1.2,2.5,2.5c0,1.8-1.3,2.7-2.6,2.7c-1.7,0-2.6-1.3-2.6-2.5
			C242.3,300.9,243.7,300,245,300z M244.8,300.4c-0.5,0-0.9,0.5-0.9,1.9c0,1.4,0.4,2.4,1.1,2.4c0.4,0,0.9-0.3,0.9-1.9
			C245.9,301.3,245.5,300.4,244.8,300.4z"/>
		<path class="st100" d="M252.5,303.9c-0.5,0.7-1.2,1.2-1.9,1.2c-1.5,0-2.4-1.1-2.4-2.4c0-0.8,0.4-1.6,1.1-2.1
			c0.7-0.5,1.4-0.7,1.9-0.7c0.4,0,0.8,0.1,1,0.3c0.1,0.1,0.2,0.2,0.2,0.4c0,0.3-0.3,0.6-0.5,0.6c-0.1,0-0.1,0-0.2-0.1
			c-0.5-0.4-0.9-0.6-1.1-0.6c-0.4,0-0.9,0.4-0.9,1.6c0,1.5,1.1,1.9,1.5,1.9c0.4,0,0.8-0.1,1.2-0.5L252.5,303.9z"/>
		<path class="st100" d="M255.9,305v-0.4c0.5-0.1,0.5-0.1,0.5-0.8v-1.9c0-0.9-0.4-1.1-0.8-1.1c-0.3,0-0.6,0.1-0.8,0.3v2.8
			c0,0.6,0.1,0.7,0.6,0.8v0.4h-2.6v-0.4c0.5-0.1,0.6-0.1,0.6-0.8v-5.1c0-0.5-0.1-0.6-0.7-0.7v-0.4c0.8-0.1,1.6-0.2,2.1-0.4
			c0,0.4,0,0.9,0,1.3v2.2c0.4-0.4,0.9-0.7,1.5-0.7c1,0,1.5,0.6,1.5,1.8v2c0,0.7,0.1,0.7,0.6,0.8v0.4L255.9,305L255.9,305z"/>
		<path class="st100" d="M262.1,301.5c-0.3-0.8-0.7-1.1-1.2-1.1c-0.3,0-0.6,0.2-0.6,0.6c0,0.4,0.3,0.6,0.9,0.9
			c0.9,0.4,1.5,0.8,1.5,1.6c0,1.1-1.1,1.6-2,1.6c-0.6,0-1.2-0.2-1.4-0.3c0-0.3-0.1-1-0.2-1.4l0.4-0.1c0.2,0.7,0.7,1.3,1.4,1.3
			c0.4,0,0.6-0.3,0.6-0.6c0-0.3-0.2-0.6-0.9-0.9c-0.7-0.4-1.4-0.7-1.4-1.6c0-0.9,0.7-1.5,1.9-1.5c0.5,0,0.9,0.1,1.2,0.2
			c0,0.3,0.1,1,0.2,1.3L262.1,301.5z"/>
	</g>
</g>
<g>
	<g>
		<line class="st101" x1="265.2" y1="208.8" x2="275.2" y2="208.8"/>
		<g>
			<polygon points="265.6,210.4 262.9,208.8 265.6,207.3 			"/>
		</g>
	</g>
</g>
<g>
	<g>
		<path class="st100" d="M280.9,206.3c-0.8,1.6-1.5,3.2-2.3,4.9l-0.6,0.1l-0.1-0.1c0.8-1.4,1.7-3,2.3-4.4h-1.7
			c-0.5,0-0.6,0.1-0.8,0.6h-0.3c0.1-0.4,0.1-0.9,0.1-1.2L280.9,206.3L280.9,206.3z"/>
		<path class="st100" d="M284.4,206.2L284.4,206.2l-0.2,0.6h-1.8c-0.1,0.4-0.2,1.1-0.3,1.5c0.3-0.1,0.7-0.2,0.9-0.2
			c1,0,1.5,0.7,1.5,1.4c0,0.5-0.2,0.9-0.7,1.3c-0.4,0.4-1,0.6-1.4,0.6c-0.4,0-0.7-0.1-0.8-0.3c-0.1-0.1-0.1-0.2-0.1-0.3
			c0-0.1,0.1-0.2,0.2-0.3c0.1-0.1,0.1-0.1,0.2,0c0.2,0.2,0.5,0.4,1,0.4c0.7,0,1-0.6,1-1.2c0-0.7-0.4-1.2-1.3-1.2
			c-0.3,0-0.6,0.1-0.8,0.1l0,0c0.1-0.6,0.3-1.8,0.4-2.4H284.4z"/>
		<path class="st100" d="M286.8,211.1c-0.1,0.1-0.3,0.1-0.3,0.1c-0.5,0-0.8-0.3-0.8-0.9V208h-0.5l0-0.1l0.2-0.2h0.4V207
			c0.1-0.2,0.4-0.4,0.5-0.5l0.1,0c0,0.3,0,0.8,0,1.2h0.9c0.1,0.1,0,0.3-0.1,0.3h-0.9v2c0,0.6,0.3,0.8,0.5,0.8c0.2,0,0.4-0.1,0.5-0.1
			l0.1,0.2L286.8,211.1z"/>
		<path class="st100" d="M289.9,211.1v-0.2c0.5-0.1,0.5-0.1,0.5-0.6V209c0-0.7-0.3-1-0.8-1c-0.3,0-0.6,0.1-0.9,0.4v1.9
			c0,0.5,0.1,0.6,0.5,0.6v0.2h-1.7v-0.2c0.5,0,0.6-0.1,0.6-0.6v-3.9c0-0.4,0-0.5-0.6-0.6v-0.2c0.4,0,0.9-0.2,1.2-0.3
			c0,0.3,0,0.7,0,1v1.7c0.3-0.3,0.7-0.6,1.2-0.6c0.7,0,1.1,0.4,1.1,1.4v1.4c0,0.5,0.1,0.6,0.5,0.6v0.2L289.9,211.1L289.9,211.1z"/>
		<path class="st100" d="M293.8,207.8c0.4-0.1,0.8-0.2,1.2-0.3c0,0.2,0,0.4,0,0.6c0,0,0.7-0.4,0.7-0.4c0.2-0.1,0.4-0.2,0.5-0.2
			c0.9,0,1.4,0.7,1.4,1.5c0,1.2-1,2-2,2.2c-0.2,0-0.5-0.1-0.6-0.1v1.1c0,0.6,0.1,0.6,0.7,0.7v0.2h-1.9v-0.2c0.5-0.1,0.6-0.1,0.6-0.6
			v-3.6c0-0.5,0-0.5-0.5-0.6L293.8,207.8L293.8,207.8z M295,210.5c0.2,0.2,0.5,0.3,0.8,0.3c0.7,0,1.1-0.6,1.1-1.5
			c0-0.9-0.5-1.4-1.1-1.4c-0.3,0-0.6,0.2-0.8,0.3V210.5L295,210.5z"/>
		<path class="st100" d="M301.1,210.5c-0.5,0.6-1.1,0.8-1.3,0.8c-1,0-1.6-0.8-1.6-1.7c0-0.5,0.2-1.1,0.5-1.4
			c0.3-0.4,0.8-0.6,1.2-0.6c0.7,0,1.2,0.6,1.2,1.2c0,0.2,0,0.2-0.2,0.3c-0.2,0-1.2,0.1-2.1,0.1c0,1.1,0.6,1.5,1.2,1.5
			c0.3,0,0.6-0.1,0.9-0.4L301.1,210.5z M299.7,207.8c-0.4,0-0.7,0.3-0.8,1c0.4,0,0.9,0,1.4,0c0.1,0,0.2,0,0.2-0.2
			C300.4,208.2,300.1,207.8,299.7,207.8z"/>
		<path class="st100" d="M303.4,211.1h-1.8v-0.2c0.5-0.1,0.6-0.1,0.6-0.6v-1.7c0-0.5,0-0.6-0.5-0.6v-0.2c0.4-0.1,0.8-0.2,1.1-0.3
			c0,0.3,0,0.6,0,0.9c0.3-0.4,0.6-0.9,1-0.9c0.3,0,0.5,0.2,0.5,0.4c0,0.2-0.1,0.4-0.3,0.4c-0.1,0.1-0.1,0-0.2,0
			c-0.1-0.1-0.2-0.2-0.4-0.2c-0.2,0-0.5,0.3-0.6,0.7v1.5c0,0.5,0,0.6,0.7,0.6L303.4,211.1L303.4,211.1z"/>
		<path class="st100" d="M307.6,210.4c-0.4,0.5-0.9,0.8-1.4,0.8c-1,0-1.6-0.8-1.6-1.7c0-0.6,0.3-1.2,0.8-1.6
			c0.4-0.3,0.9-0.5,1.2-0.5c0.4,0,0.6,0.1,0.7,0.2c0.1,0.1,0.1,0.1,0.1,0.2c0,0.2-0.2,0.4-0.3,0.4c0,0-0.1,0-0.1-0.1
			c-0.3-0.2-0.5-0.3-0.8-0.3c-0.5,0-1,0.4-1,1.3c0,1.1,0.8,1.5,1.2,1.5c0.3,0,0.6-0.1,1-0.4L307.6,210.4z"/>
		<path class="st100" d="M310.9,210.5c-0.5,0.6-1.1,0.8-1.3,0.8c-1,0-1.6-0.8-1.6-1.7c0-0.5,0.2-1.1,0.5-1.4
			c0.3-0.4,0.8-0.6,1.2-0.6c0.7,0,1.2,0.6,1.2,1.2c0,0.2,0,0.2-0.2,0.3c-0.2,0-1.2,0.1-2.1,0.1c0,1.1,0.6,1.5,1.2,1.5
			c0.3,0,0.6-0.1,0.9-0.4L310.9,210.5z M309.5,207.8c-0.4,0-0.7,0.3-0.8,1c0.4,0,0.9,0,1.4,0c0.1,0,0.2,0,0.2-0.2
			C310.3,208.2,310,207.8,309.5,207.8z"/>
		<path class="st100" d="M313.7,211.1v-0.2c0.5-0.1,0.5-0.1,0.5-0.6v-1.3c0-0.6-0.2-0.9-0.7-0.9c-0.3,0-0.6,0.2-0.9,0.4v1.9
			c0,0.6,0,0.6,0.5,0.6v0.2h-1.7v-0.2c0.5-0.1,0.6-0.1,0.6-0.6v-1.6c0-0.5-0.1-0.5-0.5-0.6v-0.2c0.4-0.1,0.8-0.2,1.1-0.3
			c0,0.2,0,0.4,0,0.6c0.2-0.1,0.3-0.2,0.5-0.4c0.2-0.1,0.4-0.2,0.7-0.2c0.6,0,1,0.5,1,1.3v1.5c0,0.5,0,0.6,0.5,0.6v0.2L313.7,211.1
			L313.7,211.1z"/>
		<path class="st100" d="M317.4,211.1c-0.1,0.1-0.3,0.1-0.3,0.1c-0.5,0-0.8-0.3-0.8-0.9V208h-0.5l0-0.1l0.2-0.2h0.4V207
			c0.1-0.2,0.4-0.4,0.5-0.5l0.1,0c0,0.3,0,0.8,0,1.2h0.9c0.1,0.1,0,0.3,0,0.3H317v2c0,0.6,0.3,0.8,0.5,0.8c0.2,0,0.4-0.1,0.5-0.1
			l0.1,0.2L317.4,211.1z"/>
		<path class="st100" d="M318.3,211.1v-0.2c0.5-0.1,0.6-0.1,0.6-0.6v-1.6c0-0.5,0-0.5-0.5-0.6v-0.2c0.4-0.1,0.8-0.2,1.1-0.3
			c0,0.3,0,0.7,0,1v1.8c0,0.5,0.1,0.6,0.6,0.6v0.2L318.3,211.1L318.3,211.1z M319.1,206.7c-0.2,0-0.4-0.2-0.4-0.4
			c0-0.3,0.2-0.4,0.4-0.4c0.2,0,0.4,0.2,0.4,0.4C319.5,206.5,319.3,206.7,319.1,206.7z"/>
		<path class="st100" d="M320.3,211.1v-0.2c0.5-0.1,0.6-0.1,0.6-0.6v-3.8c0-0.5,0-0.5-0.5-0.6v-0.2c0.4-0.1,0.9-0.2,1.2-0.3
			c0,0.4,0,0.8,0,1.1v3.8c0,0.5,0,0.6,0.6,0.6v0.2L320.3,211.1L320.3,211.1z"/>
		<path class="st100" d="M325.5,210.5c-0.5,0.6-1.1,0.8-1.3,0.8c-1,0-1.6-0.8-1.6-1.7c0-0.5,0.2-1.1,0.5-1.4
			c0.3-0.4,0.8-0.6,1.2-0.6c0.7,0,1.2,0.6,1.2,1.2c0,0.2,0,0.2-0.2,0.3c-0.2,0-1.2,0.1-2.1,0.1c0,1.1,0.6,1.5,1.2,1.5
			c0.3,0,0.6-0.1,0.9-0.4L325.5,210.5z M324.1,207.8c-0.4,0-0.7,0.3-0.8,1c0.5,0,0.9,0,1.4,0c0.1,0,0.2,0,0.2-0.2
			C324.8,208.2,324.5,207.8,324.1,207.8z"/>
	</g>
</g>
<g>
	<g>
		<line class="st101" x1="265.2" y1="217.2" x2="275.2" y2="217.2"/>
		<g>
			<polygon points="265.6,218.7 262.9,217.2 265.6,215.6 			"/>
		</g>
	</g>
</g>
<g>
	<g>
		<path class="st100" d="M280.5,214.5L280.5,214.5l-0.2,0.6h-1.8c-0.1,0.4-0.2,1.1-0.3,1.5c0.3-0.1,0.7-0.2,0.9-0.2
			c1,0,1.5,0.7,1.5,1.4c0,0.5-0.2,0.9-0.7,1.3c-0.4,0.4-1,0.6-1.4,0.6c-0.4,0-0.7-0.1-0.8-0.3c-0.1-0.1-0.1-0.2-0.1-0.3
			c0-0.1,0.1-0.2,0.2-0.3c0.1-0.1,0.1-0.1,0.2,0c0.2,0.2,0.5,0.4,1,0.4c0.7,0,1-0.6,1-1.2c0-0.7-0.4-1.2-1.3-1.2
			c-0.3,0-0.6,0.1-0.8,0.1l0,0c0.1-0.6,0.3-1.8,0.4-2.4H280.5z"/>
		<path class="st100" d="M283,214.4c1.2,0,1.6,1.3,1.6,2.6c0,1.2-0.5,2.6-1.6,2.6c-1.2,0-1.7-1.3-1.7-2.6
			C281.4,215.8,281.8,214.4,283,214.4z M283,214.7c-0.7,0-0.9,1.2-0.9,2.3c0,1.1,0.2,2.3,0.9,2.3c0.7,0,0.9-1.2,0.9-2.3
			C283.9,215.9,283.7,214.7,283,214.7z"/>
		<path class="st100" d="M286.8,219.5c-0.1,0.1-0.3,0.1-0.3,0.1c-0.5,0-0.8-0.3-0.8-0.9v-2.3h-0.5l0-0.1l0.2-0.2h0.4v-0.7
			c0.1-0.2,0.4-0.4,0.5-0.5l0.1,0c0,0.3,0,0.8,0,1.2h0.9c0.1,0.1,0,0.3-0.1,0.3h-0.9v2.1c0,0.6,0.3,0.8,0.5,0.8
			c0.2,0,0.4-0.1,0.5-0.1l0.1,0.2L286.8,219.5z"/>
		<path class="st100" d="M289.9,219.5v-0.2c0.5-0.1,0.5-0.1,0.5-0.6v-1.3c0-0.7-0.3-1-0.8-1c-0.3,0-0.6,0.1-0.9,0.4v1.9
			c0,0.5,0.1,0.6,0.5,0.6v0.2h-1.7v-0.2c0.5,0,0.6-0.1,0.6-0.6v-3.9c0-0.4,0-0.5-0.6-0.6V214c0.4,0,0.9-0.2,1.2-0.3c0,0.3,0,0.7,0,1
			v1.7c0.3-0.3,0.7-0.6,1.2-0.6c0.7,0,1.1,0.4,1.1,1.4v1.4c0,0.5,0.1,0.6,0.5,0.6v0.2L289.9,219.5L289.9,219.5z"/>
		<path class="st100" d="M293.8,216.1c0.4-0.1,0.8-0.2,1.2-0.3c0,0.2,0,0.4,0,0.6c0,0,0.7-0.4,0.7-0.4c0.2-0.1,0.4-0.2,0.5-0.2
			c0.9,0,1.4,0.7,1.4,1.5c0,1.2-1,2-2,2.2c-0.2,0-0.5-0.1-0.6-0.1v1.1c0,0.6,0.1,0.6,0.7,0.7v0.2h-1.9v-0.2c0.5-0.1,0.6-0.1,0.6-0.6
			V217c0-0.5,0-0.5-0.5-0.6L293.8,216.1L293.8,216.1z M295,218.9c0.2,0.2,0.5,0.3,0.8,0.3c0.7,0,1.1-0.6,1.1-1.5
			c0-0.9-0.5-1.4-1.1-1.4c-0.3,0-0.6,0.2-0.8,0.3V218.9L295,218.9z"/>
		<path class="st100" d="M301.1,218.8c-0.5,0.6-1.1,0.8-1.3,0.8c-1,0-1.6-0.8-1.6-1.7c0-0.5,0.2-1.1,0.5-1.4
			c0.3-0.4,0.8-0.6,1.2-0.6c0.7,0,1.2,0.6,1.2,1.2c0,0.2,0,0.2-0.2,0.3c-0.2,0-1.2,0.1-2.1,0.1c0,1.1,0.6,1.5,1.2,1.5
			c0.3,0,0.6-0.1,0.9-0.4L301.1,218.8z M299.7,216.2c-0.4,0-0.7,0.3-0.8,1c0.4,0,0.9,0,1.4,0c0.1,0,0.2,0,0.2-0.2
			C300.4,216.6,300.1,216.2,299.7,216.2z"/>
		<path class="st100" d="M303.4,219.5h-1.8v-0.2c0.5-0.1,0.6-0.1,0.6-0.6V217c0-0.5,0-0.6-0.5-0.6v-0.2c0.4-0.1,0.8-0.2,1.1-0.3
			c0,0.3,0,0.6,0,0.9c0.3-0.4,0.6-0.9,1-0.9c0.3,0,0.5,0.2,0.5,0.4c0,0.2-0.1,0.4-0.3,0.4c-0.1,0.1-0.1,0-0.2,0
			c-0.1-0.1-0.2-0.2-0.4-0.2c-0.2,0-0.5,0.3-0.6,0.7v1.5c0,0.5,0,0.6,0.7,0.6L303.4,219.5L303.4,219.5z"/>
		<path class="st100" d="M307.6,218.8c-0.4,0.5-0.9,0.8-1.4,0.8c-1,0-1.6-0.8-1.6-1.7c0-0.6,0.3-1.2,0.8-1.6
			c0.4-0.3,0.9-0.5,1.2-0.5c0.4,0,0.6,0.1,0.7,0.2c0.1,0.1,0.1,0.1,0.1,0.2c0,0.2-0.2,0.4-0.3,0.4c0,0-0.1,0-0.1-0.1
			c-0.3-0.2-0.5-0.3-0.8-0.3c-0.5,0-1,0.4-1,1.3c0,1.1,0.8,1.5,1.2,1.5c0.3,0,0.6-0.1,1-0.4L307.6,218.8z"/>
		<path class="st100" d="M310.9,218.8c-0.5,0.6-1.1,0.8-1.3,0.8c-1,0-1.6-0.8-1.6-1.7c0-0.5,0.2-1.1,0.5-1.4
			c0.3-0.4,0.8-0.6,1.2-0.6c0.7,0,1.2,0.6,1.2,1.2c0,0.2,0,0.2-0.2,0.3c-0.2,0-1.2,0.1-2.1,0.1c0,1.1,0.6,1.5,1.2,1.5
			c0.3,0,0.6-0.1,0.9-0.4L310.9,218.8z M309.5,216.2c-0.4,0-0.7,0.3-0.8,1c0.4,0,0.9,0,1.4,0c0.1,0,0.2,0,0.2-0.2
			C310.3,216.6,310,216.2,309.5,216.2z"/>
		<path class="st100" d="M313.7,219.5v-0.2c0.5-0.1,0.5-0.1,0.5-0.6v-1.3c0-0.6-0.2-0.9-0.7-0.9c-0.3,0-0.6,0.2-0.9,0.4v1.9
			c0,0.6,0,0.6,0.5,0.6v0.2h-1.7v-0.2c0.5-0.1,0.6-0.1,0.6-0.6V217c0-0.5-0.1-0.5-0.5-0.6v-0.2c0.4-0.1,0.8-0.2,1.1-0.3
			c0,0.2,0,0.4,0,0.6c0.2-0.1,0.3-0.2,0.5-0.4c0.2-0.1,0.4-0.2,0.7-0.2c0.6,0,1,0.5,1,1.3v1.5c0,0.5,0,0.6,0.5,0.6v0.2L313.7,219.5
			L313.7,219.5z"/>
		<path class="st100" d="M317.4,219.5c-0.1,0.1-0.3,0.1-0.3,0.1c-0.5,0-0.8-0.3-0.8-0.9v-2.3h-0.5l0-0.1l0.2-0.2h0.4v-0.7
			c0.1-0.2,0.4-0.4,0.5-0.5l0.1,0c0,0.3,0,0.8,0,1.2h0.9c0.1,0.1,0,0.3,0,0.3H317v2.1c0,0.6,0.3,0.8,0.5,0.8c0.2,0,0.4-0.1,0.5-0.1
			l0.1,0.2L317.4,219.5z"/>
		<path class="st100" d="M318.3,219.5v-0.2c0.5-0.1,0.6-0.1,0.6-0.6V217c0-0.5,0-0.5-0.5-0.6v-0.2c0.4-0.1,0.8-0.2,1.1-0.3
			c0,0.3,0,0.7,0,1v1.8c0,0.5,0.1,0.6,0.6,0.6v0.2L318.3,219.5L318.3,219.5z M319.1,215.1c-0.2,0-0.4-0.2-0.4-0.4
			c0-0.3,0.2-0.4,0.4-0.4c0.2,0,0.4,0.2,0.4,0.4C319.5,214.9,319.3,215.1,319.1,215.1z"/>
		<path class="st100" d="M320.3,219.5v-0.2c0.5-0.1,0.6-0.1,0.6-0.6v-3.8c0-0.5,0-0.5-0.5-0.6V214c0.4-0.1,0.9-0.2,1.2-0.3
			c0,0.4,0,0.8,0,1.1v3.8c0,0.5,0,0.6,0.6,0.6v0.2L320.3,219.5L320.3,219.5z"/>
		<path class="st100" d="M325.5,218.8c-0.5,0.6-1.1,0.8-1.3,0.8c-1,0-1.6-0.8-1.6-1.7c0-0.5,0.2-1.1,0.5-1.4
			c0.3-0.4,0.8-0.6,1.2-0.6c0.7,0,1.2,0.6,1.2,1.2c0,0.2,0,0.2-0.2,0.3c-0.2,0-1.2,0.1-2.1,0.1c0,1.1,0.6,1.5,1.2,1.5
			c0.3,0,0.6-0.1,0.9-0.4L325.5,218.8z M324.1,216.2c-0.4,0-0.7,0.3-0.8,1c0.5,0,0.9,0,1.4,0c0.1,0,0.2,0,0.2-0.2
			C324.8,216.6,324.5,216.2,324.1,216.2z"/>
	</g>
</g>
<g>
	<g>
		<line class="st101" x1="265.3" y1="225.2" x2="275.3" y2="225.2"/>
		<g>
			<polygon points="265.7,226.7 263.1,225.2 265.7,223.6 			"/>
		</g>
	</g>
</g>
<g>
	<g>
		<path class="st100" d="M280.9,226.4c-0.1,0.4-0.2,0.8-0.3,1.1h-3v-0.2c0.4-0.4,0.9-0.9,1.3-1.4c0.5-0.6,1-1.2,1-1.9
			c0-0.7-0.4-1.1-0.9-1.1c-0.6,0-0.9,0.4-1.1,0.7l-0.2-0.2l0.5-0.6c0.3-0.3,0.6-0.5,1.1-0.5c0.8,0,1.4,0.5,1.4,1.4
			c0,0.7-0.3,1.2-1,1.9c-0.3,0.4-0.9,0.9-1.2,1.2c0.1,0,1.5,0,1.5,0c0.4,0,0.6,0,0.8-0.5L280.9,226.4z"/>
		<path class="st100" d="M284.5,222.5L284.5,222.5l-0.2,0.6h-1.8c-0.1,0.4-0.2,1.1-0.3,1.5c0.3-0.1,0.7-0.2,0.9-0.2
			c1,0,1.5,0.7,1.5,1.4c0,0.5-0.2,0.9-0.7,1.3c-0.4,0.4-1,0.6-1.4,0.6c-0.4,0-0.7-0.1-0.8-0.3c-0.1-0.1-0.1-0.2-0.1-0.3
			c0-0.1,0.1-0.2,0.2-0.3c0.1-0.1,0.1-0.1,0.2,0c0.2,0.2,0.5,0.4,1,0.4c0.7,0,1-0.6,1-1.2c0-0.7-0.4-1.2-1.3-1.2
			c-0.3,0-0.6,0.1-0.8,0.1l0,0c0.1-0.6,0.3-1.8,0.4-2.4H284.5z"/>
		<path class="st100" d="M286.9,227.5c-0.1,0.1-0.3,0.1-0.3,0.1c-0.5,0-0.8-0.3-0.8-0.9v-2.3h-0.5l0-0.1l0.2-0.2h0.4v-0.7
			c0.1-0.2,0.4-0.4,0.5-0.5l0.1,0c0,0.3,0,0.8,0,1.2h0.9c0.1,0.1,0,0.3-0.1,0.3h-0.9v2.1c0,0.6,0.3,0.8,0.5,0.8
			c0.2,0,0.4-0.1,0.5-0.1l0.1,0.2L286.9,227.5z"/>
		<path class="st100" d="M290,227.5v-0.2c0.5-0.1,0.5-0.1,0.5-0.6v-1.3c0-0.7-0.3-1-0.8-1c-0.3,0-0.6,0.1-0.9,0.4v1.9
			c0,0.5,0.1,0.6,0.5,0.6v0.2h-1.7v-0.2c0.5,0,0.6-0.1,0.6-0.6v-3.9c0-0.4,0-0.5-0.6-0.6V222c0.4,0,0.9-0.2,1.2-0.3c0,0.3,0,0.7,0,1
			v1.7c0.3-0.3,0.7-0.6,1.2-0.6c0.7,0,1.1,0.4,1.1,1.4v1.4c0,0.5,0.1,0.6,0.5,0.6v0.2L290,227.5L290,227.5z"/>
		<path class="st100" d="M293.9,224.1c0.4-0.1,0.8-0.2,1.2-0.3c0,0.2,0,0.4,0,0.6c0,0,0.7-0.4,0.7-0.4c0.2-0.1,0.4-0.2,0.5-0.2
			c0.9,0,1.4,0.7,1.4,1.5c0,1.2-1,2-2,2.2c-0.2,0-0.5-0.1-0.6-0.1v1.1c0,0.6,0.1,0.6,0.7,0.7v0.2h-1.9v-0.2c0.5-0.1,0.6-0.1,0.6-0.6
			v-3.6c0-0.5,0-0.5-0.5-0.6L293.9,224.1L293.9,224.1z M295.1,226.9c0.2,0.2,0.5,0.3,0.8,0.3c0.7,0,1.1-0.6,1.1-1.5
			c0-0.9-0.5-1.4-1.1-1.4c-0.3,0-0.6,0.2-0.8,0.3V226.9L295.1,226.9z"/>
		<path class="st100" d="M301.2,226.8c-0.5,0.6-1.1,0.8-1.3,0.8c-1,0-1.6-0.8-1.6-1.7c0-0.5,0.2-1.1,0.5-1.4
			c0.3-0.4,0.8-0.6,1.2-0.6c0.7,0,1.2,0.6,1.2,1.2c0,0.2,0,0.2-0.2,0.3c-0.2,0-1.2,0.1-2.1,0.1c0,1.1,0.6,1.5,1.2,1.5
			c0.3,0,0.6-0.1,0.9-0.4L301.2,226.8z M299.8,224.2c-0.4,0-0.7,0.3-0.8,1c0.4,0,0.9,0,1.4,0c0.1,0,0.2,0,0.2-0.2
			C300.5,224.6,300.3,224.2,299.8,224.2z"/>
		<path class="st100" d="M303.6,227.5h-1.8v-0.2c0.5-0.1,0.6-0.1,0.6-0.6V225c0-0.5,0-0.6-0.5-0.6v-0.2c0.4-0.1,0.8-0.2,1.1-0.3
			c0,0.3,0,0.6,0,0.9c0.3-0.4,0.6-0.9,1-0.9c0.3,0,0.5,0.2,0.5,0.4c0,0.2-0.1,0.4-0.3,0.4c-0.1,0.1-0.1,0-0.2,0
			c-0.1-0.1-0.2-0.2-0.4-0.2c-0.2,0-0.5,0.3-0.6,0.7v1.5c0,0.5,0,0.6,0.7,0.6L303.6,227.5L303.6,227.5z"/>
		<path class="st100" d="M307.7,226.8c-0.4,0.5-0.9,0.8-1.4,0.8c-1,0-1.6-0.8-1.6-1.7c0-0.6,0.3-1.2,0.8-1.6
			c0.4-0.3,0.9-0.5,1.2-0.5c0.4,0,0.6,0.1,0.7,0.2c0.1,0.1,0.1,0.1,0.1,0.2c0,0.2-0.2,0.4-0.3,0.4c0,0-0.1,0-0.1-0.1
			c-0.3-0.2-0.5-0.3-0.8-0.3c-0.5,0-1,0.4-1,1.3c0,1.1,0.8,1.5,1.2,1.5c0.3,0,0.6-0.1,1-0.4L307.7,226.8z"/>
		<path class="st100" d="M311,226.8c-0.5,0.6-1.1,0.8-1.3,0.8c-1,0-1.6-0.8-1.6-1.7c0-0.5,0.2-1.1,0.5-1.4c0.3-0.4,0.8-0.6,1.2-0.6
			c0.7,0,1.2,0.6,1.2,1.2c0,0.2,0,0.2-0.2,0.3c-0.2,0-1.2,0.1-2.1,0.1c0,1.1,0.6,1.5,1.2,1.5c0.3,0,0.6-0.1,0.9-0.4L311,226.8z
			 M309.7,224.2c-0.4,0-0.7,0.3-0.8,1c0.5,0,0.9,0,1.4,0c0.1,0,0.2,0,0.2-0.2C310.4,224.6,310.1,224.2,309.7,224.2z"/>
		<path class="st100" d="M313.9,227.5v-0.2c0.5-0.1,0.5-0.1,0.5-0.6v-1.3c0-0.6-0.2-0.9-0.7-0.9c-0.3,0-0.6,0.2-0.9,0.4v1.9
			c0,0.6,0,0.6,0.5,0.6v0.2h-1.7v-0.2c0.5-0.1,0.6-0.1,0.6-0.6V225c0-0.5-0.1-0.5-0.5-0.6v-0.2c0.4-0.1,0.8-0.2,1.1-0.3
			c0,0.2,0,0.4,0,0.6c0.2-0.1,0.3-0.2,0.5-0.4c0.2-0.1,0.4-0.2,0.7-0.2c0.6,0,1,0.5,1,1.3v1.5c0,0.5,0,0.6,0.5,0.6v0.2H313.9z"/>
		<path class="st100" d="M317.6,227.5c-0.1,0.1-0.3,0.1-0.3,0.1c-0.5,0-0.8-0.3-0.8-0.9v-2.3h-0.5l0-0.1l0.2-0.2h0.4v-0.7
			c0.1-0.2,0.4-0.4,0.5-0.5l0.1,0c0,0.3,0,0.8,0,1.2h0.9c0.1,0.1,0,0.3,0,0.3h-0.9v2.1c0,0.6,0.3,0.8,0.5,0.8c0.2,0,0.4-0.1,0.5-0.1
			l0.1,0.2L317.6,227.5z"/>
		<path class="st100" d="M318.4,227.5v-0.2c0.5-0.1,0.6-0.1,0.6-0.6V225c0-0.5,0-0.5-0.5-0.6v-0.2c0.4-0.1,0.8-0.2,1.1-0.3
			c0,0.3,0,0.7,0,1v1.8c0,0.5,0.1,0.6,0.6,0.6v0.2L318.4,227.5L318.4,227.5z M319.2,223.1c-0.2,0-0.4-0.2-0.4-0.4
			c0-0.3,0.2-0.4,0.4-0.4c0.2,0,0.4,0.2,0.4,0.4C319.7,222.9,319.5,223.1,319.2,223.1z"/>
		<path class="st100" d="M320.5,227.5v-0.2c0.5-0.1,0.6-0.1,0.6-0.6v-3.8c0-0.5,0-0.5-0.5-0.6V222c0.4-0.1,0.9-0.2,1.2-0.3
			c0,0.4,0,0.8,0,1.1v3.8c0,0.5,0,0.6,0.6,0.6v0.2L320.5,227.5L320.5,227.5z"/>
		<path class="st100" d="M325.6,226.8c-0.5,0.6-1.1,0.8-1.3,0.8c-1,0-1.6-0.8-1.6-1.7c0-0.5,0.2-1.1,0.5-1.4
			c0.3-0.4,0.8-0.6,1.2-0.6c0.7,0,1.2,0.6,1.2,1.2c0,0.2,0,0.2-0.2,0.3c-0.2,0-1.2,0.1-2.1,0.1c0,1.1,0.6,1.5,1.2,1.5
			c0.3,0,0.6-0.1,0.9-0.4L325.6,226.8z M324.2,224.2c-0.4,0-0.7,0.3-0.8,1c0.5,0,0.9,0,1.4,0c0.1,0,0.2,0,0.2-0.2
			C325,224.6,324.7,224.2,324.2,224.2z"/>
	</g>
</g>
<g>
	<g>
		<path class="st100" d="M71.2,250c-0.5,0.1-0.9,0.4-1.1,0.5c-0.2,0.2-0.3,0.3-0.3,0.9v0.7H75c0.9,0,1-0.1,1.1-1.1h0.4v3.6H76
			c-0.1-0.9-0.1-1-1.1-1h-5.2v0.7c0,0.6,0.1,0.8,0.4,1c0.2,0.1,0.6,0.3,1,0.4v0.4c-0.8-0.1-1.7-0.1-2.2-0.2v-0.3
			c0.3-0.2,0.3-0.3,0.3-0.6v-4.4c0-0.3-0.1-0.4-0.3-0.6v-0.3c0.5,0,1.4-0.1,2.2-0.1L71.2,250z"/>
		<path class="st100" d="M76.6,245.3c0,0.3-0.1,0.5-0.2,0.7c-0.1,0.1-0.3,0.2-0.4,0.3c0.3,0.4,0.6,1,0.6,1.2c0,0.9-0.7,1.5-1.4,1.5
			c-0.6,0-0.8-0.3-1.1-0.9c-0.2-0.6-0.5-1.5-0.7-1.8h-0.5c-0.6,0-0.9,0.2-0.9,0.7c0,0.2,0.1,0.3,0.2,0.4c0.2,0.1,0.4,0.2,0.7,0.3
			c0.3,0.1,0.4,0.3,0.4,0.5c0,0.3-0.3,0.6-0.6,0.6c-0.2,0-0.3-0.1-0.5-0.4c-0.3-0.5-0.7-1.1-0.8-1.8c0-0.4,0.1-0.8,0.3-1.1
			c0.3-0.5,0.8-0.6,1.3-0.6H75c0.5,0,0.7-0.2,0.7-0.4c0-0.1,0-0.2-0.1-0.3l0.4-0.1L76.6,245.3z M73.8,246.3c0.1,0.2,0.2,0.4,0.3,0.6
			c0.2,0.3,0.4,0.5,0.8,0.5c0.6,0,0.8-0.4,0.8-0.7c0-0.1,0-0.3-0.2-0.5C75,246.3,74.3,246.3,73.8,246.3z"/>
		<path class="st100" d="M76.4,240.9v2.9h-0.4c-0.1-0.6-0.1-0.6-0.8-0.6h-2.4c-0.6,0-0.6,0-0.7,0.6h-0.3c-0.1-0.7-0.2-1.3-0.4-2
			c0.4,0,0.8,0,1.2,0c-0.8-0.5-1.2-0.9-1.2-1.3c0-0.4,0.3-0.7,0.7-0.7c0.5,0,0.8,0.4,0.9,0.6c0.1,0.1,0,0.3-0.1,0.3
			c-0.2,0.2-0.3,0.3-0.3,0.5c0,0.2,0.1,0.4,0.6,0.6h2.1c0.7,0,0.7-0.1,0.8-0.9L76.4,240.9L76.4,240.9z"/>
		<path class="st100" d="M74.8,237c0,1.3-0.7,2.1-1.7,2.1c-1.2,0-1.8-1.1-1.8-2.1c0-0.5,0.1-0.8,0.3-1.2c0-0.5-0.1-1.2-0.1-1.5
			l0.1-0.1c0.2,0.1,0.6,0.2,0.7,0.4c0,0.2,0,0.5-0.1,0.6c0.2-0.2,0.5-0.3,0.9-0.3C74.3,234.9,74.8,235.9,74.8,237z M71.8,237
			c0,0.3,0.4,0.7,1.2,0.7c0.8,0,1.4-0.3,1.4-0.8c0-0.4-0.5-0.7-1.2-0.7C72.5,236.2,71.8,236.5,71.8,237z M74.7,237.5
			c0.1,0.1,0.3,0.2,0.4,0.2c0.2,0,0.4-0.2,0.4-0.6c0-0.4,0-0.9,0-1.2c0-0.7,0.3-1.6,1.3-1.6c1.2,0,2.2,1.5,2.2,3
			c0,1.4-0.7,2.1-1.3,2.1c-0.3,0-0.4-0.1-0.6-0.3c-0.2-0.3-0.4-0.6-0.5-0.8c-0.2,0.4-0.4,0.7-0.6,0.8c-0.2,0.1-0.4,0.2-0.6,0.2
			c-0.2-0.5-0.6-1-0.8-1.2L74.7,237.5z M76.7,236.9c0,0.6,0.1,0.8,0.2,1c0.1,0.2,0.4,0.3,0.6,0.3c0.6,0,1-0.6,1-1.5
			c0-0.9-0.4-1.4-1-1.4c-0.4,0-0.7,0.3-0.8,0.6C76.7,236.2,76.7,236.5,76.7,236.9z"/>
		<path class="st100" d="M75.4,229.6c1,0.7,1.2,1.6,1.2,2c0,1.5-1.1,2.3-2.4,2.3c-0.8,0-1.5-0.4-2-0.8c-0.5-0.5-0.8-1.1-0.8-1.7
			c0-1.1,0.9-1.8,1.8-1.8c0.2,0,0.4,0,0.4,0.1c0.1,0.2,0.1,1.8,0.2,2.8c1.2,0,1.8-0.7,1.8-1.5c0-0.4-0.2-0.9-0.5-1.3L75.4,229.6z
			 M71.9,231.6c0,0.4,0.5,0.8,1.4,0.9c0-0.4,0-0.9,0-1.3c0-0.1,0-0.2-0.2-0.2C72.4,230.9,71.9,231.1,71.9,231.6z"/>
		<path class="st100" d="M76.4,226.5c0.1,0.2,0.1,0.4,0.1,0.4c0,0.9-0.4,1.4-1.4,1.4h-3.1v0.7l-0.1,0.1l-0.4-0.3v-0.4h-0.9
			c-0.3-0.4-0.6-0.9-0.9-1.3l0.1-0.1c0.3,0,0.9,0,1.7,0v-1.1c0.1-0.1,0.5-0.1,0.6,0.1v1h2.7c0.9,0,1-0.4,1-0.6c0-0.2,0-0.3-0.1-0.5
			l0.4-0.1L76.4,226.5z"/>
		<path class="st100" d="M71.9,217.8c0.1,0.6,0.2,0.7,0.7,0.9c0.9,0.4,2.2,1,3.9,1.6v0.5c-1.4,0.6-2.7,1.1-3.9,1.6
			c-0.5,0.2-0.6,0.3-0.7,0.9h-0.4v-2.8h0.4c0.1,0.5,0.2,0.6,0.6,0.4c0.8-0.3,1.8-0.7,2.3-0.9c-0.5-0.2-1.4-0.6-2.2-0.8
			c-0.3-0.1-0.5-0.1-0.6,0.6h-0.4v-2.1L71.9,217.8L71.9,217.8z"/>
		<path class="st100" d="M76.6,214c0,0.3-0.1,0.5-0.2,0.7c-0.1,0.1-0.3,0.2-0.4,0.3c0.3,0.4,0.6,1,0.6,1.2c0,0.9-0.7,1.5-1.4,1.5
			c-0.6,0-0.8-0.3-1.1-0.9c-0.2-0.6-0.5-1.5-0.7-1.8h-0.5c-0.6,0-0.9,0.2-0.9,0.7c0,0.2,0.1,0.3,0.2,0.4c0.2,0.1,0.4,0.2,0.7,0.3
			c0.3,0.1,0.4,0.3,0.4,0.5c0,0.3-0.3,0.6-0.6,0.6c-0.2,0-0.3-0.1-0.5-0.4c-0.3-0.5-0.7-1.1-0.8-1.8c0-0.4,0.1-0.8,0.3-1.1
			c0.3-0.5,0.8-0.6,1.3-0.6H75c0.5,0,0.7-0.2,0.7-0.4c0-0.1,0-0.2-0.1-0.3l0.4-0.1L76.6,214z M73.8,215c0.1,0.2,0.2,0.4,0.3,0.6
			c0.2,0.3,0.4,0.5,0.8,0.5c0.6,0,0.8-0.4,0.8-0.7c0-0.1,0-0.3-0.2-0.5C75,215,74.3,215,73.8,215z"/>
		<path class="st100" d="M76.4,209.6v2.9h-0.4c-0.1-0.6-0.1-0.6-0.8-0.6h-2.4c-0.6,0-0.6,0-0.7,0.6h-0.3c-0.1-0.7-0.2-1.3-0.4-2
			c0.4,0,0.8,0,1.2,0c-0.8-0.5-1.2-0.9-1.2-1.3c0-0.4,0.3-0.7,0.7-0.7c0.5,0,0.8,0.4,0.9,0.6c0.1,0.1,0,0.3-0.1,0.3
			c-0.2,0.2-0.3,0.3-0.3,0.5c0,0.2,0.1,0.4,0.6,0.6h2.1c0.7,0,0.7-0.1,0.8-0.9L76.4,209.6L76.4,209.6z"/>
		<path class="st100" d="M70.7,206.7c0,0.4-0.3,0.8-0.8,0.8c-0.4,0-0.8-0.4-0.8-0.8c0-0.4,0.3-0.8,0.8-0.8
			C70.4,205.9,70.7,206.3,70.7,206.7z M76.4,208h-0.4c-0.1-0.6-0.1-0.7-0.9-0.7H73c-0.7,0-0.8,0.1-0.9,0.6h-0.4
			c-0.1-0.7-0.2-1.4-0.4-2c0.5,0,0.9,0,1.4,0h2.4c0.8,0,0.8,0,0.9-0.7h0.4L76.4,208L76.4,208z"/>
		<path class="st100" d="M76.6,201.1c0,0.3-0.1,0.5-0.2,0.7c-0.1,0.1-0.3,0.2-0.4,0.3c0.3,0.4,0.6,1,0.6,1.2c0,0.9-0.7,1.5-1.4,1.5
			c-0.6,0-0.8-0.3-1.1-0.9c-0.2-0.6-0.5-1.5-0.7-1.8h-0.5c-0.6,0-0.9,0.2-0.9,0.7c0,0.2,0.1,0.3,0.2,0.4c0.2,0.1,0.4,0.2,0.7,0.3
			c0.3,0.1,0.4,0.3,0.4,0.5c0,0.3-0.3,0.6-0.6,0.6c-0.2,0-0.3-0.1-0.5-0.4c-0.3-0.5-0.7-1.1-0.8-1.8c0-0.4,0.1-0.8,0.3-1.1
			c0.3-0.5,0.8-0.6,1.3-0.6H75c0.5,0,0.7-0.2,0.7-0.4c0-0.1,0-0.2-0.1-0.3l0.4-0.1L76.6,201.1z M73.8,202.1c0.1,0.2,0.2,0.4,0.3,0.6
			c0.2,0.3,0.4,0.5,0.8,0.5c0.6,0,0.8-0.4,0.8-0.7c0-0.1,0-0.3-0.2-0.5C75,202.1,74.3,202.1,73.8,202.1z"/>
		<path class="st100" d="M71.6,197.3c-0.1-0.3-0.2-0.6-0.2-0.8c0-1.3,1.1-2.2,2.3-2.2c1.6,0,2.8,1.3,2.8,2.9c0,0.6-0.1,1.2-0.4,2
			c-0.3,0-0.6,0-0.8,0h-5.1c-0.6,0-0.7,0.1-0.8,0.7h-0.4c-0.1-0.6-0.2-1.5-0.4-2.1c0.4,0,0.8,0,1.2,0h1.9L71.6,197.3z M75.2,197.6
			c0.1,0,0.3,0,0.4-0.1c0.2-0.1,0.5-0.4,0.5-0.8c0-0.6-0.7-1-2-1c-1.4,0-2,0.7-2,1.4c0,0.2,0,0.3,0.1,0.5H75.2z"/>
		<path class="st100" d="M76.4,193.7h-0.4c-0.1-0.6-0.1-0.6-0.8-0.6h-5c-0.6,0-0.6,0.1-0.8,0.6h-0.4c-0.1-0.8-0.2-1.5-0.4-2.1
			c0.5,0,1,0,1.5,0h5c0.7,0,0.8,0,0.8-0.7h0.4V193.7z"/>
		<path class="st100" d="M75.4,186.1c1,0.7,1.2,1.6,1.2,2c0,1.5-1.1,2.3-2.4,2.3c-0.8,0-1.5-0.4-2-0.8c-0.5-0.5-0.8-1.1-0.8-1.7
			c0-1.1,0.9-1.8,1.8-1.8c0.2,0,0.4,0,0.4,0.1c0.1,0.2,0.1,1.8,0.2,2.8c1.2,0,1.8-0.7,1.8-1.5c0-0.4-0.2-0.9-0.5-1.3L75.4,186.1z
			 M71.9,188.1c0,0.4,0.5,0.8,1.4,0.9c0-0.4,0-0.9,0-1.3c0-0.1,0-0.2-0.2-0.2C72.4,187.4,71.9,187.7,71.9,188.1z"/>
		<path class="st100" d="M77.6,185.4c-0.3-0.6-0.6-1.1-1.1-1.1c-0.4,0-0.6,0.3-0.7,0.9c0,0.1-0.2,0.2-0.5,0.2
			c-0.3,0-0.7-0.3-0.7-0.8c0-0.6,0.5-1.2,1.4-1.2c1,0,1.7,0.9,1.9,1.8L77.6,185.4z"/>
		<path class="st100" d="M69.7,173.4c0.1,0.6,0.1,0.8,0.8,1.3c0.5,0.4,1.4,1.1,2.6,1.9c0.2,0.1,0.4,0.2,0.6,0.2l1.3,0.3
			c0.9,0.2,1,0.1,1.1-0.9l0.4,0.1v3.5l-0.4-0.1c-0.1-0.9-0.2-1-1.1-1.2l-1.3-0.3c-0.2,0-0.4,0-0.6,0c-0.7,0.2-1.5,0.4-2.4,0.8
			c-0.8,0.3-0.9,0.4-0.9,1.1l-0.4-0.1v-3l0.4,0.1l0,0.3c0,0.4,0.2,0.4,0.5,0.3c0.7-0.2,1.6-0.5,2.5-0.8c-0.7-0.5-1.8-1.2-2.4-1.6
			c-0.4-0.2-0.5-0.2-0.6,0.3l0,0.3l-0.4-0.1v-2.5L69.7,173.4z"/>
	</g>
</g>
<line class="st102" x1="238.4" y1="209.3" x2="248.5" y2="209.2"/>
<g>
	<rect x="238.3" y="209.2" class="st3" width="10.4" height="16"/>
	<rect x="248.7" y="209.2" class="st7" width="10.4" height="16"/>
</g>
<line class="st103" x1="249" y1="209.2" x2="259.1" y2="209.1"/>
<line class="st102" x1="238.3" y1="217.3" x2="248.4" y2="217.2"/>
<line class="st102" x1="238.3" y1="225.3" x2="248.4" y2="225.2"/>
<line class="st103" x1="248.9" y1="217.2" x2="259" y2="217"/>
<line class="st103" x1="249" y1="225.2" x2="259.1" y2="225"/>
<rect x="243.5" y="232.4" class="st7" width="10.4" height="16"/>
<line class="st103" x1="243.8" y1="232.4" x2="253.9" y2="232.2"/>
<line class="st103" x1="243.7" y1="240.4" x2="253.8" y2="240.2"/>
<line class="st103" x1="243.8" y1="248.4" x2="253.9" y2="248.2"/>
<g>
	<g>
		<path class="st104" d="M260,240.1h-2.3l0.1-0.7h2.3L260,240.1z"/>
		<path class="st104" d="M267,239.9c-0.4,0.1-0.5,0.1-0.5,0.6v0.5c0,0.3,0,0.5,0,0.7c-0.4,0.1-1.1,0.2-1.7,0.2c-1.6,0-2.6-1-2.6-2.4
			c0-1.6,1.3-2.4,2.8-2.4c0.6,0,1.2,0.1,1.4,0.2c0,0.3,0.1,0.8,0.1,1.2l-0.3,0.1c-0.2-0.6-0.4-0.9-0.9-1c-0.2-0.1-0.4-0.1-0.6-0.1
			c-0.9,0-1.5,0.7-1.5,1.9c0,1.2,0.4,2.2,1.6,2.2c0.1,0,0.3,0,0.5-0.1c0.1-0.1,0.2-0.2,0.2-0.4v-0.6c0-0.5-0.1-0.5-0.7-0.6v-0.3h2.1
			L267,239.9L267,239.9z"/>
		<path class="st104" d="M270.1,238.4c-0.1-0.4-0.3-1-1-1c-0.4,0-0.7,0.3-0.7,0.7c0,0.4,0.3,0.6,0.9,0.9c0.8,0.4,1.2,0.7,1.2,1.4
			c0,0.8-0.7,1.4-1.7,1.4c-0.5,0-0.9-0.1-1.2-0.2c0-0.2-0.2-0.9-0.2-1.2l0.3-0.1c0.1,0.4,0.5,1.2,1.2,1.2c0.4,0,0.7-0.3,0.7-0.7
			c0-0.4-0.3-0.6-0.8-1c-0.7-0.4-1.2-0.7-1.2-1.5c0-0.7,0.6-1.3,1.6-1.3c0.5,0,0.9,0.1,1,0.1c0,0.3,0.1,0.6,0.1,1.1L270.1,238.4z"/>
		<path class="st104" d="M273.7,238.4c-0.1-0.4-0.3-1-1-1c-0.4,0-0.7,0.3-0.7,0.7c0,0.4,0.3,0.6,0.9,0.9c0.8,0.4,1.2,0.7,1.2,1.4
			c0,0.8-0.7,1.4-1.7,1.4c-0.4,0-0.9-0.1-1.2-0.2c0-0.2-0.2-0.9-0.2-1.2l0.3-0.1c0.1,0.4,0.5,1.2,1.2,1.2c0.4,0,0.7-0.3,0.7-0.7
			c0-0.4-0.3-0.6-0.8-1c-0.7-0.4-1.2-0.7-1.2-1.5c0-0.7,0.6-1.3,1.6-1.3c0.5,0,0.9,0.1,1,0.1c0,0.3,0.1,0.6,0.1,1.1L273.7,238.4z"/>
		<path class="st104" d="M278.3,240.3v1.6h-0.5v-1.6h-1.4v-0.5h1.4v-1.4h0.5v1.4h1.4v0.5H278.3z"/>
		<path class="st104" d="M286.2,240.6c-0.1,0.4-0.3,0.9-0.4,1.1c-0.2,0-0.8,0.2-1.3,0.2c-1.9,0-2.7-1.2-2.7-2.3
			c0-1.4,1.1-2.4,2.8-2.4c0.6,0,1.1,0.1,1.3,0.2c0,0.3,0.1,0.9,0.1,1.2l-0.3,0.1c-0.1-0.6-0.4-0.8-0.7-0.9c-0.2-0.1-0.4-0.1-0.6-0.1
			c-1,0-1.5,0.9-1.5,1.9c0,1.3,0.7,2.1,1.6,2.1c0.6,0,1-0.3,1.4-1.1L286.2,240.6z"/>
		<path class="st104" d="M289.2,237.2c1.3,0,2.4,0.9,2.4,2.3c0,1.5-1.1,2.4-2.4,2.4c-1.4,0-2.4-1-2.4-2.4
			C286.8,238.4,287.6,237.2,289.2,237.2z M289.1,237.5c-0.7,0-1.2,0.7-1.2,1.9c0,1.2,0.5,2.2,1.4,2.2c0.7,0,1.2-0.6,1.2-1.9
			C290.5,238.3,289.9,237.5,289.1,237.5z"/>
		<path class="st104" d="M295.8,241.8v-0.3c0.5-0.1,0.6-0.1,0.6-0.7l0-2.7c-0.5,1.2-1.1,2.5-1.6,3.7h-0.2c-0.5-1.1-0.9-2.4-1.5-3.7
			c-0.1,2.2-0.1,2.6-0.1,2.9c0,0.4,0.1,0.5,0.7,0.5v0.3h-1.7v-0.3c0.4,0,0.6-0.1,0.6-0.5c0-0.2,0.1-0.6,0.2-2.9c0-0.3,0-0.5-0.6-0.6
			v-0.3h1.5l1.4,3.1l1.4-3.1h1.5v0.3c-0.6,0.1-0.6,0.1-0.6,0.7l0.1,2.6c0,0.6,0,0.7,0.6,0.7v0.3L295.8,241.8L295.8,241.8z"/>
		<path class="st104" d="M301.1,238.4c-0.1-0.4-0.3-1-1-1c-0.4,0-0.7,0.3-0.7,0.7c0,0.4,0.3,0.6,0.9,0.9c0.8,0.4,1.2,0.7,1.2,1.4
			c0,0.8-0.7,1.4-1.7,1.4c-0.4,0-0.9-0.1-1.2-0.2c0-0.2-0.2-0.9-0.2-1.2l0.3-0.1c0.1,0.4,0.5,1.2,1.2,1.2c0.4,0,0.7-0.3,0.7-0.7
			c0-0.4-0.3-0.6-0.8-1c-0.7-0.4-1.2-0.7-1.2-1.5c0-0.7,0.6-1.3,1.6-1.3c0.5,0,0.9,0.1,1,0.1c0,0.3,0.1,0.6,0.1,1.1L301.1,238.4z"/>
		<path class="st104" d="M304.5,237.2c1.3,0,2.4,0.9,2.4,2.3c0,1.5-1.1,2.4-2.4,2.4c-1.4,0-2.4-1-2.4-2.4
			C302.1,238.4,302.9,237.2,304.5,237.2z M304.4,237.5c-0.7,0-1.2,0.7-1.2,1.9c0,1.2,0.5,2.2,1.4,2.2c0.7,0,1.2-0.6,1.2-1.9
			C305.8,238.3,305.2,237.5,304.4,237.5z"/>
		<path class="st104" d="M311.2,240.6c-0.1,0.3-0.3,1-0.3,1.2h-3.5v-0.3c0.6,0,0.7-0.1,0.7-0.7v-2.7c0-0.6-0.1-0.6-0.6-0.7v-0.3h2.2
			v0.3c-0.6,0.1-0.6,0.1-0.6,0.7v2.7c0,0.4,0,0.6,0.4,0.6c0,0,0.3,0,0.4,0c0.4,0,0.5-0.1,0.7-0.3c0.1-0.1,0.3-0.4,0.4-0.7
			L311.2,240.6z"/>
		<path class="st104" d="M315.1,240.3v1.6h-0.5v-1.6h-1.4v-0.5h1.4v-1.4h0.5v1.4h1.4v0.5H315.1z"/>
		<path class="st104" d="M323.4,239.9c-0.4,0.1-0.5,0.1-0.5,0.6v0.5c0,0.3,0,0.5,0,0.7c-0.4,0.1-1.1,0.2-1.7,0.2
			c-1.6,0-2.6-1-2.6-2.4c0-1.6,1.3-2.4,2.8-2.4c0.6,0,1.2,0.1,1.4,0.2c0,0.3,0.1,0.8,0.1,1.2l-0.3,0.1c-0.2-0.6-0.4-0.9-0.9-1
			c-0.2-0.1-0.4-0.1-0.6-0.1c-0.9,0-1.5,0.7-1.5,1.9c0,1.2,0.4,2.2,1.6,2.2c0.1,0,0.3,0,0.5-0.1c0.1-0.1,0.2-0.2,0.2-0.4v-0.6
			c0-0.5-0.1-0.5-0.7-0.6v-0.3h2.1V239.9z"/>
		<path class="st104" d="M326.1,241.8v-0.3c0.4-0.1,0.4-0.1,0.3-0.4c-0.1-0.2-0.2-0.5-0.3-0.8h-1.4c-0.1,0.2-0.2,0.5-0.3,0.7
			c-0.1,0.4,0,0.5,0.6,0.6v0.3h-1.7v-0.3c0.4-0.1,0.5-0.1,0.8-0.7l1.5-3.6l0.3-0.1c0.5,1.2,0.9,2.5,1.4,3.6c0.3,0.6,0.3,0.7,0.8,0.8
			v0.3H326.1z M325.5,238.5c-0.2,0.5-0.4,1-0.6,1.5h1.1L325.5,238.5z"/>
	</g>
</g>
<g>
	<g>
		<path class="st104" d="M260,260.9h-2.3l0.1-0.7h2.3L260,260.9z"/>
		<path class="st104" d="M268.5,260.7c-0.4,0.1-0.4,0.1-0.4,0.6v0.5c0,0.3,0,0.5,0,0.7c-0.4,0.1-1.1,0.2-1.7,0.2
			c-1.6,0-2.6-1-2.6-2.4c0-1.6,1.3-2.4,2.8-2.4c0.6,0,1.2,0.1,1.4,0.2c0,0.3,0.1,0.8,0.1,1.2l-0.3,0c-0.2-0.6-0.4-0.9-0.9-1
			c-0.2-0.1-0.4-0.1-0.6-0.1c-0.9,0-1.5,0.7-1.5,1.9c0,1.2,0.4,2.2,1.6,2.2c0.1,0,0.3,0,0.4-0.1c0.1-0.1,0.2-0.2,0.2-0.4v-0.6
			c0-0.5-0.1-0.5-0.7-0.6v-0.3h2.1L268.5,260.7L268.5,260.7z"/>
		<path class="st104" d="M273.9,258.3c-0.4,0.1-0.6,0.1-0.6,0.5c0,0.3,0,0.5,0,1.1v2.8h-0.4l-2.9-3.5v1.6c0,0.6,0,0.9,0,1.1
			c0,0.3,0.2,0.5,0.7,0.5v0.3h-1.7v-0.3c0.4,0,0.6-0.1,0.6-0.5c0-0.3,0-0.5,0-1.1v-1.7c0-0.2,0-0.4-0.1-0.6
			c-0.1-0.2-0.3-0.2-0.6-0.2v-0.3h1.4l2.7,3.1v-1.3c0-0.6,0-0.8,0-1.1c0-0.3-0.1-0.5-0.7-0.5v-0.3h1.7L273.9,258.3L273.9,258.3z"/>
		<path class="st104" d="M279.1,258.3c-0.4,0.1-0.6,0.1-0.6,0.5c0,0.3,0,0.5,0,1.1v2.8h-0.4l-2.9-3.5v1.6c0,0.6,0,0.9,0,1.1
			c0,0.3,0.2,0.5,0.7,0.5v0.3h-1.7v-0.3c0.4,0,0.6-0.1,0.6-0.5c0-0.3,0-0.5,0-1.1v-1.7c0-0.2,0-0.4-0.1-0.6
			c-0.1-0.2-0.3-0.2-0.6-0.2v-0.3h1.4l2.7,3.1v-1.3c0-0.6,0-0.8,0-1.1c0-0.3-0.1-0.5-0.7-0.5v-0.3h1.7L279.1,258.3L279.1,258.3z"/>
		<path class="st104" d="M283.1,261.1v1.5h-0.5v-1.5h-1.4v-0.5h1.4v-1.4h0.5v1.4h1.4v0.5H283.1z"/>
		<path class="st104" d="M291,261.4c-0.1,0.4-0.3,0.9-0.4,1.1c-0.2,0-0.8,0.2-1.3,0.2c-1.9,0-2.7-1.2-2.7-2.3c0-1.5,1.1-2.4,2.8-2.4
			c0.6,0,1.1,0.1,1.3,0.2c0,0.3,0.1,0.9,0.1,1.2l-0.3,0c-0.1-0.5-0.4-0.8-0.7-1c-0.2-0.1-0.4-0.1-0.6-0.1c-1,0-1.5,0.9-1.5,2
			c0,1.3,0.7,2.1,1.6,2.1c0.6,0,1-0.3,1.4-1.1L291,261.4z"/>
		<path class="st104" d="M294,258c1.3,0,2.4,1,2.4,2.3c0,1.5-1.1,2.4-2.4,2.4c-1.4,0-2.4-1-2.4-2.4C291.6,259.2,292.4,258,294,258z
			 M293.9,258.3c-0.7,0-1.2,0.7-1.2,1.9c0,1.2,0.5,2.2,1.4,2.2c0.7,0,1.2-0.6,1.2-1.9C295.3,259.1,294.7,258.3,293.9,258.3z"/>
		<path class="st104" d="M300.6,262.6v-0.3c0.5-0.1,0.6-0.1,0.6-0.7l0-2.7c-0.5,1.2-1.1,2.5-1.6,3.7h-0.2c-0.5-1.1-0.9-2.4-1.5-3.7
			c-0.1,2.2-0.1,2.6-0.1,2.9c0,0.4,0.1,0.5,0.7,0.5v0.3h-1.7v-0.3c0.4,0,0.6-0.1,0.6-0.5c0-0.2,0.1-0.6,0.2-2.9c0-0.3,0-0.5-0.6-0.6
			v-0.3h1.5l1.4,3.1l1.4-3.1h1.5v0.3c-0.6,0.1-0.6,0.1-0.6,0.7l0.1,2.6c0,0.6,0,0.7,0.6,0.7v0.3L300.6,262.6L300.6,262.6z"/>
		<path class="st104" d="M305.9,259.2c-0.1-0.5-0.3-1-1-1c-0.4,0-0.7,0.3-0.7,0.7c0,0.4,0.3,0.6,0.9,0.9c0.8,0.4,1.2,0.7,1.2,1.4
			c0,0.8-0.7,1.4-1.7,1.4c-0.4,0-0.9-0.1-1.2-0.2c0-0.2-0.2-0.9-0.2-1.2l0.3-0.1c0.1,0.4,0.5,1.2,1.2,1.2c0.4,0,0.7-0.3,0.7-0.7
			c0-0.4-0.3-0.6-0.8-1c-0.7-0.4-1.2-0.7-1.2-1.5c0-0.7,0.6-1.3,1.6-1.3c0.5,0,0.9,0.1,1,0.1c0,0.3,0.1,0.6,0.1,1.1L305.9,259.2z"/>
		<path class="st104" d="M309.3,258c1.3,0,2.4,1,2.4,2.3c0,1.5-1.1,2.4-2.4,2.4c-1.4,0-2.4-1-2.4-2.4
			C306.9,259.2,307.7,258,309.3,258z M309.2,258.3c-0.7,0-1.2,0.7-1.2,1.9c0,1.2,0.5,2.2,1.4,2.2c0.7,0,1.2-0.6,1.2-1.9
			C310.6,259.1,310,258.3,309.2,258.3z"/>
		<path class="st104" d="M316,261.4c-0.1,0.3-0.3,1-0.3,1.2h-3.5v-0.3c0.6,0,0.7-0.1,0.7-0.7V259c0-0.6-0.1-0.6-0.6-0.7v-0.3h2.2
			v0.3c-0.5,0-0.6,0.1-0.6,0.7v2.7c0,0.4,0,0.6,0.4,0.6c0,0,0.3,0,0.4,0c0.4,0,0.5-0.1,0.7-0.3c0.1-0.1,0.3-0.4,0.4-0.7L316,261.4z"
			/>
		<path class="st104" d="M319.9,261.1v1.5h-0.5v-1.5H318v-0.5h1.4v-1.4h0.5v1.4h1.4v0.5H319.9z"/>
		<path class="st104" d="M328.2,260.7c-0.4,0.1-0.5,0.1-0.5,0.6v0.5c0,0.3,0,0.5,0,0.7c-0.4,0.1-1.1,0.2-1.7,0.2
			c-1.6,0-2.6-1-2.6-2.4c0-1.6,1.3-2.4,2.8-2.4c0.6,0,1.2,0.1,1.4,0.2c0,0.3,0.1,0.8,0.1,1.2l-0.3,0c-0.2-0.6-0.4-0.9-0.9-1
			c-0.2-0.1-0.4-0.1-0.6-0.1c-0.9,0-1.5,0.7-1.5,1.9c0,1.2,0.4,2.2,1.6,2.2c0.1,0,0.3,0,0.5-0.1c0.1-0.1,0.2-0.2,0.2-0.4v-0.6
			c0-0.5-0.1-0.5-0.7-0.6v-0.3h2.1V260.7z"/>
		<path class="st104" d="M330.9,262.6v-0.3c0.4-0.1,0.4-0.1,0.3-0.4c-0.1-0.2-0.2-0.5-0.3-0.8h-1.4c-0.1,0.2-0.2,0.5-0.3,0.7
			c-0.1,0.4,0,0.5,0.6,0.5v0.3h-1.7v-0.3c0.4-0.1,0.5-0.1,0.8-0.7l1.5-3.6l0.3-0.1c0.5,1.2,0.9,2.5,1.4,3.6c0.3,0.6,0.3,0.7,0.8,0.8
			v0.3L330.9,262.6L330.9,262.6z M330.3,259.3c-0.2,0.5-0.4,1-0.6,1.5h1.1L330.3,259.3z"/>
	</g>
</g>
<rect x="243.5" y="253" class="st3" width="10.4" height="16"/>
<line class="st102" x1="243.7" y1="261" x2="253.8" y2="260.8"/>
<line class="st102" x1="243.8" y1="268.9" x2="253.9" y2="268.8"/>
<line class="st102" x1="243.7" y1="253.1" x2="253.8" y2="253"/>
<rect x="230.3" y="200.9" class="st105" width="107.1" height="80.3"/>
</svg>
